<svg width="84" height="83" viewBox="0 0 84 83" fill="none" xmlns="http://www.w3.org/2000/svg">
    <path fill-rule="evenodd" clip-rule="evenodd"
          d="M54.8541 21.2138C53.0738 15.6887 50.2182 10.7987 46.1942 6.59084C45.1769 5.52644 44.0462 4.55131 43.3365 3.22728C42.8881 2.38911 42.4608 1.53936 42.0239 0.695745L41.7464 0L41.6691 0.273937C41.6329 1.65044 40.8508 2.58332 39.8773 3.45488C38.7807 4.43478 37.7607 5.49918 36.7078 6.52747L33.47 10.7721L30.8523 15.5708L29.1015 20.2829L29.0489 20.3558C28.0856 23.5102 27.6105 26.7538 27.3773 30.0288C27.2891 31.2602 27.3903 32.5085 27.4594 33.746C27.5585 35.515 27.8668 37.2534 28.329 38.9658C30.0087 45.1846 33.4181 50.3424 38.0799 54.7254C38.9454 55.5397 39.8814 56.2804 40.7845 57.0545L41.1844 58.4228L41.5563 60.5462L41.7341 62.7629C41.732 63.2127 41.7135 63.6644 41.7402 64.1128C41.7477 64.228 41.8981 64.3343 41.9829 64.4447L42.7377 64.7091L43.5232 65.0137L43.3885 63.0437L43.3823 61.1029L43.6538 58.1469L43.8506 57.5036L44.4147 56.508C45.1106 55.9506 45.8565 55.4436 46.4902 54.8228C47.6367 53.7005 48.7812 52.5625 49.8073 51.3325C51.1384 49.7373 52.2842 47.9962 53.2044 46.1291C53.819 44.88 54.3987 43.6057 54.878 42.3008C55.3005 41.1505 55.5623 39.941 55.8953 38.7573L55.9828 38.5018C56.6698 35.3072 56.7854 32.0799 56.5331 28.8322C56.3301 26.2148 55.7127 23.6887 54.8541 21.2138ZM41.2493 55.4729C41.3546 54.9475 41.4852 54.4249 41.5802 53.8974C41.4852 54.4249 41.3553 54.9475 41.2493 55.4729ZM71.0368 68.0515C70.4721 66.9728 69.6435 66.1537 68.5483 65.6161C67.6309 65.1663 66.6443 64.9687 65.6298 64.9401C64.8696 64.9183 64.1066 64.9571 63.345 64.9667C62.6689 64.9748 61.9921 64.9864 61.3159 64.9803C60.5209 64.9721 59.7258 64.9483 58.9307 64.9258C58.7987 64.9217 58.7051 64.9483 58.6435 65.0818C58.5471 65.2897 58.433 65.49 58.3147 65.7176L58.4473 65.7599C58.8418 65.8294 59.2383 65.8887 59.6307 65.967C60.1353 66.0672 60.3622 66.3561 60.3855 66.78C60.4197 67.3837 60.4333 67.9888 60.4313 68.594C60.421 70.9885 60.4039 73.3831 60.3862 75.777C60.3848 75.9351 60.3821 76.1 60.339 76.2485C60.2891 76.4202 60.2351 76.6424 60.1066 76.7269C59.8844 76.8741 59.6089 76.9736 59.3443 77.0165C58.9608 77.0792 58.8965 77.0962 58.7769 77.4724L58.7249 77.6604C58.6675 77.8656 58.6982 77.9058 58.9129 77.9078C60.1448 77.9214 61.3761 77.948 62.6074 77.9439C63.7306 77.9398 64.8539 78.008 65.973 77.7974C67.0306 77.5991 68.0178 77.2516 68.9189 76.6635C70.0879 75.8996 70.9288 74.8788 71.3725 73.5466C71.7307 72.4706 71.8107 71.3728 71.689 70.2478C71.6063 69.4716 71.3971 68.7405 71.0368 68.0515ZM68.8785 74.6349C68.2195 75.8574 67.2364 76.6737 65.8315 76.8891C64.9516 77.0233 64.0704 76.9845 63.2315 76.6526C62.7003 76.4427 62.5028 75.9855 62.4864 75.4451C62.4706 74.9156 62.4645 74.3855 62.4638 73.856C62.4611 71.993 62.4611 70.1299 62.4638 68.2675C62.4652 67.6808 62.4754 67.0928 62.485 66.5054C62.4918 66.0924 62.5787 65.9541 62.9827 65.9207C64.7575 65.7721 66.4509 65.9629 67.8571 67.2079C68.7267 67.9779 69.2217 68.9599 69.4275 70.0877C69.513 70.5579 69.5389 71.0389 69.5923 71.5159C69.5492 72.6049 69.4015 73.6645 68.8785 74.6349ZM83.7747 72.6171C83.4246 71.7681 82.7615 71.2359 81.9281 70.8952C81.6437 70.7786 81.3504 70.6825 81.0435 70.5694L81.1508 70.5013C81.4824 70.2894 81.8515 70.1183 82.1373 69.8573C82.8319 69.2229 83.1204 68.425 82.985 67.4771C82.8565 66.5755 82.4053 65.9139 81.5993 65.4846C80.8678 65.0961 80.0788 64.9544 79.2625 64.9551C77.8501 64.9564 76.437 64.9776 75.0246 64.9803C74.5378 64.981 74.051 64.9449 73.5643 64.938C73.4699 64.9367 73.3298 64.9605 73.2895 65.0232C73.178 65.1936 73.1042 65.3898 73.0249 65.5793C72.9791 65.6897 73.0242 65.7503 73.1507 65.7667C73.4905 65.813 73.8295 65.8709 74.17 65.9214C74.6404 65.9915 74.868 66.2355 74.8967 66.7077L74.9029 66.9878C74.9036 68.4563 74.9083 69.9248 74.9022 71.3933C74.8947 72.8591 74.8783 74.3262 74.8605 75.7926C74.8584 75.9773 74.8331 76.1627 74.8065 76.346C74.7661 76.6226 74.6178 76.8134 74.3334 76.8734L73.5287 77.0315C73.4337 77.0506 73.2963 77.0478 73.2573 77.1064C73.1097 77.3265 72.9907 77.5671 73.0071 77.8574L73.0898 77.8799L75.7923 77.946L76.3344 77.9439C77.2697 77.933 78.2063 77.9514 79.1402 77.9037C80.1513 77.8533 81.1009 77.5541 81.9787 77.0397C82.9132 76.4911 83.6325 75.7681 83.8881 74.6805C84.0522 73.9861 84.0529 73.2877 83.7747 72.6171ZM76.9087 66.3609C76.9128 66.0658 77.0434 65.9377 77.3374 65.9302C78.0614 65.9105 78.7806 65.9145 79.4793 66.1633C80.383 66.4849 80.9389 67.2617 80.9286 68.211C80.9238 68.5756 80.9293 68.9367 80.7946 69.287C80.5287 69.9766 80.0187 70.3405 79.2954 70.4113C78.918 70.4495 78.5372 70.4536 78.2008 70.4713L77.0783 70.4222C76.9292 70.4168 76.8643 70.3514 76.865 70.1987L76.9087 66.3609ZM81.5617 75.5562C81.2 76.3405 80.541 76.7528 79.7158 76.8959C79.0561 77.0104 78.3909 76.977 77.7387 76.8093C77.256 76.686 77.0591 76.2996 76.9627 75.871C76.8978 75.5841 76.9087 75.2427 76.9032 74.9442C76.8944 74.4836 76.9012 73.5275 76.9012 73.5275H76.8916C76.8916 72.8461 76.8937 72.256 76.8896 71.6025C76.8889 71.4614 76.9128 71.3912 77.0858 71.3967C77.6997 71.4151 78.3157 71.4253 78.9296 71.4492C79.4786 71.4703 79.9927 71.6325 80.476 71.8921C81.2116 72.2873 81.6546 72.8924 81.7763 73.7238C81.8693 74.3541 81.8297 74.9742 81.5617 75.5562ZM14.1623 76.2908L14.1753 72.5858C14.1773 72.0284 14.1062 71.4819 13.923 70.9531C13.4178 69.4969 12.0245 68.8338 10.5738 69.3565C9.91408 69.5943 9.32272 69.9548 8.75802 70.3636C8.42918 70.6021 8.42918 70.6021 8.19127 70.2621C7.51787 69.2999 6.55597 68.9708 5.43615 69.3258C4.71216 69.5548 4.0791 69.9466 3.47953 70.4018C3.42347 70.4441 3.31067 70.4911 3.27717 70.4659C3.22111 70.4243 3.18214 70.3255 3.18351 70.2512L3.22453 69.5929C3.22795 69.4546 3.20128 69.3156 3.18761 69.1704C2.91688 69.2638 2.70085 69.3572 2.47456 69.4117C1.77518 69.582 1.07102 69.7388 0.36754 69.8989C0.19731 69.9377 0.0175095 69.9889 0.00110177 70.1837C-0.0159896 70.3752 0.16928 70.4072 0.312848 70.4645C0.615023 70.5858 0.915147 70.7146 1.2139 70.8454C1.4648 70.9558 1.55846 71.1555 1.5571 71.424C1.55231 72.5722 1.55983 73.719 1.553 74.8672C1.55026 75.334 1.52838 75.8001 1.50719 76.2669C1.48805 76.6805 1.34653 76.8536 0.944544 76.9579C0.731244 77.0138 0.514526 77.0512 0.299858 77.1017C0.252686 77.1126 0.172015 77.1426 0.171331 77.1657C0.162444 77.3681 0.151506 77.5753 0.185688 77.7722C0.192525 77.8076 0.407192 77.8076 0.526148 77.8213L0.606135 77.8165C1.43472 77.8042 2.26331 77.7913 3.09258 77.7824C3.53217 77.7777 3.97108 77.7817 4.44827 77.7817L4.49954 77.1208C4.22608 77.071 3.98202 77.0335 3.74137 76.9811C3.36604 76.8993 3.20607 76.701 3.1965 76.3235L3.18966 75.7831C3.18556 74.3814 3.18009 72.9804 3.18009 71.5786C3.18009 71.3749 3.26486 71.2134 3.44467 71.0914C3.82546 70.8352 4.22745 70.6314 4.67251 70.5176C5.61048 70.2785 6.42403 70.611 6.785 71.4062C6.89917 71.657 6.98873 71.9343 7.01402 72.2069C7.14665 73.612 7.08922 75.0185 7.00924 76.4236C6.99214 76.7269 6.84926 76.8795 6.54914 76.9538L5.84361 77.1024C5.78686 77.1167 5.70414 77.0785 5.70004 77.1255C5.68431 77.3197 5.6932 77.6175 5.6932 77.6175H5.86138L8.00942 77.6877C8.59805 77.6863 9.18736 77.7572 9.7753 77.7722C9.88058 77.7742 9.97424 77.7899 9.98039 77.6686C9.98997 77.4765 9.98176 77.2959 9.97287 77.1037L9.86075 77.084L9.25572 76.9483C8.84758 76.8523 8.70675 76.6976 8.70538 76.286C8.70059 75.2713 8.71427 74.2574 8.70538 73.2434C8.70059 72.6635 8.67803 72.0836 8.64043 71.505C8.63018 71.351 8.65411 71.2502 8.77716 71.1636C9.1395 70.9061 9.53123 70.7078 9.96125 70.5946C11.2841 70.2471 12.367 70.9701 12.4354 72.3296C12.5024 73.6407 12.4744 74.9565 12.4641 76.2703C12.4607 76.7276 12.3089 76.8659 11.857 76.9886L11.7011 77.0288C11.2383 77.1392 11.2424 77.1391 11.2698 77.6291C11.2787 77.7824 11.321 77.8219 11.4851 77.8179C12.4279 77.7967 13.3706 77.7913 14.3134 77.7831C14.699 77.7797 15.0846 77.7831 15.5043 77.7831L15.5898 77.1453C15.2213 77.0478 14.8815 76.9756 14.5534 76.8686C14.2635 76.7705 14.1609 76.596 14.1623 76.2908ZM46.6283 70.6751C47.0166 70.3159 47.0194 69.8417 46.9107 69.3149C46.603 69.6359 46.2585 69.7837 45.8654 69.8117C45.3383 69.8492 44.8207 69.8035 44.3299 69.5943C43.0022 69.026 41.6951 69.0662 40.392 69.6897C39.2961 70.213 38.6221 71.0287 38.5544 72.2655C38.5113 73.058 38.6603 73.8083 39.1909 74.4386C39.5088 74.8161 39.9169 75.0608 40.377 75.2298C40.5753 75.3027 40.5903 75.3967 40.4242 75.5228C40.3025 75.6161 40.1733 75.7006 40.0434 75.7817C39.7658 75.9555 39.4862 76.1272 39.2052 76.2955C39.0405 76.395 38.9844 76.5218 39.0384 76.716C39.1963 77.287 39.6031 77.6168 40.1117 77.8574L40.297 77.9862L40.135 78.1477C39.6366 78.5504 39.1184 78.9306 38.6412 79.3579C38.2406 79.717 38.1114 80.1981 38.2324 80.729C38.4764 81.7886 39.1813 82.4441 40.1815 82.7453C41.9296 83.2727 43.571 82.9702 45.0675 81.9378C45.9549 81.3252 46.5914 80.5279 46.7849 79.4308C47.0016 78.1981 46.3145 77.1282 45.0846 76.9075C44.2711 76.7603 43.4384 76.718 42.6153 76.624C42.2311 76.5804 41.8414 76.5545 41.4674 76.4666C41.1495 76.3916 40.9916 76.1334 41.021 75.8812C41.0504 75.6332 41.315 75.4022 41.6178 75.3783C42.2277 75.3293 42.8252 75.2345 43.3871 74.9783C44.8761 74.2996 45.5673 73.1112 45.3943 71.5112C45.3718 71.2958 45.3225 71.0832 45.2781 70.8325C45.7546 70.9122 46.2421 71.0328 46.6283 70.6751ZM42.1101 78.1824C42.7158 78.2001 43.4049 78.2376 44.0708 78.4318C44.6567 78.6022 45.1387 78.9007 45.2809 79.5528C45.4524 80.3405 45.0723 81.1242 44.3073 81.5453C43.5909 81.9392 42.8129 81.9719 42.0239 81.8908C41.3485 81.8213 40.7407 81.5882 40.2539 81.0908C39.6127 80.4359 39.6093 79.5296 40.2512 78.8768C40.8248 78.2935 41.1318 78.1729 42.1101 78.1824ZM43.6257 73.4383C43.273 74.5633 42.2461 74.7187 41.4415 74.3589C40.7557 74.0529 40.457 73.4505 40.3004 72.763C40.2396 72.4986 40.2252 72.224 40.1897 71.9534C40.204 71.5657 40.2683 71.1936 40.4358 70.8447C40.9492 69.7701 42.2106 69.8342 42.9086 70.3207C43.208 70.5292 43.4165 70.8127 43.5471 71.1487C43.837 71.901 43.8664 72.6676 43.6257 73.4383ZM37.2199 77.0247C36.9772 76.9858 36.7331 76.9354 36.4973 76.8639C36.0816 76.7371 36.031 76.6594 36.0262 76.2213C36.0139 75.0001 36.0057 73.779 35.9921 72.5585C35.9852 72.0093 35.9196 71.4676 35.7507 70.9429C35.3063 69.5595 33.9452 68.8168 32.5834 69.225C31.8286 69.4519 31.1805 69.8737 30.5768 70.3691L30.3567 70.5374L30.3574 70.3118C30.3717 70.0522 30.3998 69.7926 30.3977 69.533C30.3963 69.3974 30.3444 69.2611 30.3191 69.1418C29.8043 69.2965 29.3428 69.4519 28.8718 69.5704C28.3994 69.689 27.9174 69.7694 27.4395 69.8662C27.2023 69.9139 27.028 70.057 27.0321 70.2199C27.0382 70.4495 27.229 70.4938 27.3958 70.5626C27.698 70.686 27.9995 70.8107 28.2982 70.9429C28.5115 71.0376 28.5983 71.2134 28.5963 71.4417C28.5812 73.0287 28.5717 74.6165 28.5484 76.2042C28.5416 76.7058 28.4144 76.838 27.9195 76.9483L27.7034 76.9913C27.2454 77.0696 27.2324 77.088 27.2638 77.5698L27.2666 77.6495C27.2611 77.8349 27.3425 77.8949 27.5339 77.8928C28.7508 77.8785 29.9684 77.8717 31.1853 77.8765C31.7069 77.8785 31.763 77.8376 31.752 77.3034L31.7274 77.0737C31.4293 77.024 31.1443 76.9879 30.8653 76.9265C30.5734 76.8618 30.4688 76.7426 30.4415 76.4468C30.4162 76.1763 30.408 75.9017 30.4052 75.6291C30.3916 74.3814 30.3806 73.1337 30.3745 71.8866C30.3731 71.5725 30.4312 71.2808 30.7211 71.0785C31.1607 70.7725 31.642 70.5953 32.1738 70.5592C33.2595 70.4849 34.0847 71.1262 34.1434 72.2049C34.2159 73.5357 34.194 74.8713 34.2111 76.2049C34.2125 76.3044 34.1947 76.4046 34.1811 76.5034C34.1551 76.6983 34.0594 76.8448 33.8611 76.8952C33.6676 76.9456 33.4714 76.9906 33.2738 77.0206C32.9792 77.0642 32.973 77.0621 32.9505 77.3586L32.958 77.5582C32.9929 77.903 32.9935 77.8928 33.3436 77.8894C34.5208 77.8799 35.6974 77.8737 36.874 77.8751C37.3662 77.8765 37.4011 77.8533 37.4052 77.3477L37.4038 77.2277C37.4113 77.0983 37.3532 77.0458 37.2199 77.0247ZM53.6631 69.3088C52.4291 69.0083 51.2587 69.2318 50.1471 69.8049C49.0669 70.3616 48.345 71.2222 48.0702 72.4107C47.7926 73.612 47.9252 74.7841 48.4578 75.8996C48.8044 76.624 49.3376 77.1841 50.0637 77.548C51.7633 78.4012 53.8422 78.0141 55.1754 76.8727C56.2275 75.9725 56.6138 74.7739 56.637 73.2904C56.6227 73.1419 56.6083 72.8556 56.5687 72.5722C56.3451 70.9572 55.2232 69.689 53.6631 69.3088ZM54.5977 75.5473C54.2702 76.8325 53.1552 77.4035 51.8972 76.962C51.2553 76.7371 50.7754 76.3071 50.4527 75.7259C49.7102 74.3902 49.5674 72.9701 49.9899 71.5132C50.2715 70.5429 51.0728 70.012 52.0258 70.0788C52.8776 70.1381 53.5325 70.5456 54.0132 71.2366C54.5197 71.9657 54.7153 72.795 54.7672 73.6659C54.7761 73.8056 54.7686 73.9453 54.7686 74.0856L54.8288 74.0925C54.7536 74.5783 54.718 75.0737 54.5977 75.5473ZM22.6273 69.2877C21.329 68.9919 20.1128 69.2842 18.9862 69.9418C18.012 70.5101 17.3823 71.3592 17.141 72.4686C16.9147 73.5051 17.007 74.5238 17.3755 75.5167C17.5997 76.1218 17.9395 76.654 18.4379 77.069C19.4873 77.9419 20.7138 78.1627 22.0189 77.9194C23.1236 77.7129 24.0944 77.2236 24.8 76.3085C25.4604 75.4526 25.7119 74.47 25.7379 73.4049C25.699 73.0676 25.6894 72.7241 25.6176 72.395C25.2607 70.7521 24.2968 69.6672 22.6273 69.2877ZM23.6863 75.5432C23.3698 76.8216 22.2369 77.407 20.9879 76.9654C20.186 76.6812 19.6637 76.0959 19.3335 75.3456C18.8043 74.1402 18.6963 72.8856 19.0388 71.6141C19.3013 70.6417 20.0923 69.9255 21.3031 70.0972C22.0462 70.2021 22.6259 70.5803 23.058 71.182C23.6418 71.9936 23.834 72.9231 23.8606 73.8996V74.0993L23.9098 74.1068C23.8381 74.5865 23.8025 75.0744 23.6863 75.5432Z"
          fill="#4FAA41"/>
</svg>
