<svg width="61" height="66" viewBox="0 0 61 66" fill="none" xmlns="http://www.w3.org/2000/svg">
    <path d="M28.1603 0.704127C29.7968 -0.232592 31.9283 -0.236823 33.5634 0.704127C41.7894 5.35223 50.018 9.99305 58.2425 14.644C59.7895 15.5153 60.8242 17.2369 60.8084 19.0194V46.9842C60.82 48.8405 59.683 50.6032 58.0509 51.4548C49.852 56.0773 41.6573 60.7054 33.4598 65.3279C31.7894 66.2829 29.6151 66.2094 27.9969 65.176C25.5389 63.7511 23.0766 62.3332 20.6184 60.9097C20.116 60.6102 19.5498 60.3719 19.1951 59.8848C19.5086 59.4622 20.0693 59.4095 20.5248 59.225C21.5509 58.8987 22.4932 58.375 23.4358 57.8668C23.6742 57.7037 23.9652 57.7662 24.1937 57.9122C26.2956 59.1173 28.3789 60.3575 30.4879 61.5512C30.9378 61.8109 31.3933 61.4661 31.7779 61.2517C39.8236 56.7044 47.8791 52.1743 55.9234 47.6257C56.2215 47.4823 56.3862 47.1659 56.362 46.8394C56.3677 37.6144 56.3634 28.3878 56.3648 19.1628C56.3989 18.7923 56.1846 18.4517 55.8496 18.3001C47.6791 13.6988 39.5128 9.09041 31.3437 4.48791C31.2022 4.39061 31.0345 4.3384 30.8628 4.33815C30.691 4.33789 30.5232 4.38961 30.3814 4.4865C22.2123 9.09041 14.0475 13.703 5.87838 18.3041C5.54459 18.456 5.32058 18.7909 5.3603 19.1628C5.36172 28.3878 5.3603 37.6144 5.3603 46.8408C5.34614 47.0001 5.38113 47.1599 5.46056 47.2987C5.53999 47.4375 5.66005 47.5487 5.80457 47.6172C7.98453 48.8534 10.1673 50.0809 12.3487 51.3128C13.5776 51.9743 15.0864 52.3673 16.4404 51.8605C17.6352 51.432 18.4727 50.2127 18.4499 48.9441C18.4612 39.773 18.4443 30.6004 18.4584 21.4307C18.4285 21.0235 18.8147 20.6872 19.2106 20.7255C20.258 20.7184 21.3069 20.7114 22.3543 20.7283C22.7915 20.7184 23.0924 21.1568 23.0383 21.567C23.0341 30.7962 23.0496 40.0257 23.0313 49.2549C23.0341 51.7145 22.0236 54.391 19.7484 55.5945C16.9455 57.0464 13.4812 56.7385 10.7122 55.3462C8.31503 54.1498 6.02741 52.7378 3.6728 51.456C2.03654 50.6091 0.905188 48.8393 0.916706 46.9844V19.0194C0.899547 17.2 1.97542 15.4472 3.57055 14.5885C11.7681 9.96225 19.9642 5.33248 28.1603 0.704127Z"
          fill="#8CC84B"/>
    <path d="M35.3119 20.0755C38.8872 19.8454 42.7147 19.9392 45.932 21.7005C48.4229 23.0502 49.8039 25.883 49.8479 28.6503C49.7783 29.0236 49.3881 29.2295 49.0318 29.2039C47.9944 29.2025 46.9569 29.218 45.9195 29.1968C45.4795 29.2138 45.2238 28.8081 45.1685 28.419C44.8705 27.0949 44.1484 25.7835 42.9021 25.1449C40.9889 24.187 38.7706 24.2352 36.6844 24.2552C35.1615 24.336 33.5238 24.4679 32.2336 25.3635C31.243 26.0419 30.9421 27.4113 31.2957 28.5142C31.629 29.3061 32.5431 29.5617 33.2911 29.7972C37.5998 30.9241 42.1656 30.812 46.392 32.295C48.1418 32.8995 49.8535 34.0748 50.4525 35.9069C51.2359 38.3624 50.8925 41.2973 49.1455 43.2686C47.7288 44.8907 45.6654 45.7736 43.6075 46.2531C40.8697 46.8636 38.0285 46.8791 35.2482 46.6081C32.6339 46.31 29.9133 45.6232 27.895 43.8419C26.1692 42.3434 25.3263 40.0085 25.41 37.755C25.4299 37.3744 25.8089 37.109 26.1734 37.1403C27.2181 37.1318 28.2627 37.129 29.3073 37.1417C29.7245 37.1118 30.0339 37.4724 30.0553 37.8657C30.248 39.1272 30.7221 40.4513 31.8222 41.1993C33.9453 42.569 36.6092 42.4752 39.0402 42.5135C41.0542 42.4242 43.3151 42.3972 44.9586 41.066C45.8257 40.3068 46.0827 39.0365 45.8483 37.9437C45.5944 37.0211 44.6293 36.5912 43.8005 36.31C39.547 34.9645 34.9302 35.4528 30.7179 33.9312C29.0078 33.3269 27.3542 32.1842 26.6972 30.4274C25.7804 27.9409 26.2005 24.8654 28.1306 22.9607C30.0125 21.0661 32.7291 20.3367 35.3119 20.0755Z"
          fill="#8CC84B"/>
</svg>
