<svg width="70" height="70" viewBox="0 0 70 70" fill="none" xmlns="http://www.w3.org/2000/svg">
    <path fill-rule="evenodd" clip-rule="evenodd"
          d="M69.6723 43.3506C69.4263 41.7548 68.0859 40.7098 66.5267 40.6392C65.9623 40.6135 65.3892 40.6726 64.8265 40.7442C64.1467 40.8306 63.4752 40.9837 62.797 41.0849C62.3284 41.1549 61.8531 41.1872 61.385 41.2353L61.3735 41.1746C62.2474 39.5241 63.158 37.8917 63.9848 36.2177C64.6187 34.9337 65.1612 33.6031 65.7217 32.2835C66.6492 30.0971 67.3902 27.8429 68.0038 25.552C68.5917 23.3585 69.0948 21.1409 69.2529 18.8654C69.3163 17.9565 69.3601 17.0438 69.3552 16.1338C69.3508 15.408 69.2726 14.6813 69.1998 13.9577C69.1178 13.1287 68.8673 12.3428 68.5206 11.5865C68.0634 10.5901 67.3547 9.7725 66.6087 8.99594C66.0116 8.37414 65.3548 7.80758 64.7034 7.24156C63.7748 6.43383 62.7309 5.78906 61.6464 5.21648C60.4143 4.5657 59.1193 4.05656 57.7691 3.71258C56.9526 3.50422 56.1175 3.34945 55.2906 3.1843C54.9931 3.12414 54.6951 3 54.3976 3H48.797C48.5947 3 48.394 3.10445 48.19 3.12742C46.8491 3.27672 45.524 3.52938 44.2372 3.92805C43.7559 4.07734 43.3162 3.98328 42.8591 3.94117C42.5085 3.90891 42.164 3.81484 41.8134 3.79734C40.478 3.73063 39.1409 3.63273 37.8059 3.64695C36.5268 3.66008 35.2608 3.87063 34.0227 4.22227C32.9863 4.51648 31.9724 4.87578 31.0438 5.42047C30.6463 5.65344 30.3313 5.60969 29.92 5.49102C28.538 5.09234 27.1463 4.71773 25.7424 4.40328C24.8674 4.2075 23.9678 4.11016 23.0742 4.01664C22.2178 3.9275 21.3548 3.87391 20.4941 3.85586C19.653 3.83781 18.8059 3.83836 17.9686 3.91273C16.6348 4.03141 15.3261 4.30266 14.0541 4.74016C12.6415 5.22578 11.3465 5.92961 10.1789 6.85383C8.99383 7.79172 8.04336 8.93687 7.27883 10.2445C6.47328 11.6242 5.92094 13.1013 5.5775 14.6528C5.39156 15.4934 5.27398 16.3574 5.14656 17.2111C5.10664 17.4769 5.54688 17.7427 5 18.0073V21.7228C5.54688 21.97 5.11375 22.2166 5.14547 22.4644C5.22148 23.0599 5.28875 23.6604 5.38937 24.2516C5.54852 25.1873 5.73719 26.1202 5.92969 27.0499C6.1982 28.3488 6.47766 29.6465 6.77516 30.9388C6.99172 31.8794 7.23836 32.8145 7.49648 33.7448C7.89078 35.1655 8.27906 36.5891 8.72477 37.994C9.13875 39.2994 9.61289 40.5862 10.0832 41.873C10.7345 43.653 11.5144 45.3757 12.4495 47.0267C13.2584 48.4562 14.1826 49.795 15.4223 50.8964C16.2394 51.6221 17.1488 52.1799 18.2076 52.4588C19.0394 52.6776 19.8848 52.7038 20.7363 52.5294C21.7234 52.327 22.5973 51.9021 23.3745 51.2655C23.4636 51.1923 23.5615 51.1365 23.667 51.271C24.069 51.7802 24.6071 52.1198 25.1698 52.4134C26.6885 53.2053 28.3434 53.4427 30.0245 53.5395C30.4313 53.563 30.8426 53.5045 31.2527 53.493C32.0517 53.4711 32.8283 53.3152 33.5923 53.0943C33.9926 52.9784 34.3836 52.8313 34.791 52.694C34.8123 53.1277 34.8397 53.5455 34.8523 53.9633L34.9091 56.2416C34.9195 56.5883 34.9332 56.9361 34.9655 57.2812C35.048 58.1709 35.129 59.0613 35.2351 59.9483C35.3089 60.5597 35.3855 61.176 35.5293 61.7727C35.8186 62.9774 36.2107 64.1505 36.7095 65.288C37.1989 66.4041 37.9027 67.3464 38.8423 68.1235C40.0563 69.1276 41.4793 69.5558 43.016 69.6351C43.6515 69.6684 44.305 69.6373 44.9306 69.5235C45.9221 69.3436 46.9114 69.1172 47.8766 68.8262C49.8405 68.2334 51.538 67.2097 52.8062 65.5554C53.528 64.6126 54.1209 63.5927 54.5015 62.4666C54.8154 61.5364 55.1112 60.5969 55.3464 59.6448C55.5323 58.8945 55.6242 58.1206 55.7374 57.3545C55.8123 56.8475 55.8572 56.3356 55.9042 55.8248C55.9808 54.9952 56.059 54.1662 56.1142 53.3349C56.1525 52.7563 56.1509 52.175 56.1738 51.5953C56.1809 51.4187 56.2094 51.2431 56.2258 51.067C56.2411 50.9041 56.3231 50.8477 56.4894 50.8505C57.0751 50.8592 57.6619 50.8745 58.2459 50.8483C58.9005 50.8188 59.5612 50.7909 60.2054 50.6826C61.1225 50.5289 62.0352 50.3348 62.9343 50.0991C63.9969 49.8213 64.9714 49.3236 65.9093 48.7565C67.002 48.0964 67.9978 47.322 68.8061 46.3245C69.5088 45.4545 69.8419 44.4487 69.6723 43.3506ZM67.8064 43.8877C67.7703 44.388 67.5412 44.8168 67.2087 45.1832C65.6397 46.913 63.6715 47.9624 61.42 48.4792C60.5647 48.675 59.682 48.7767 58.8065 48.8577C58.0611 48.9266 57.3048 48.938 56.5566 48.9107C56.0065 48.8899 55.4607 48.7641 54.8985 48.6832C54.8422 49.1973 54.7886 49.7327 54.7235 50.267L54.4616 52.315C54.3823 52.9641 54.3205 53.6155 54.239 54.2641C54.1591 54.8935 54.0596 55.5208 53.9759 56.1502C53.8977 56.7365 53.8403 57.3255 53.7534 57.9106C53.6194 58.8075 53.4914 59.7066 53.3164 60.5963C53.1064 61.66 52.7843 62.6903 52.2588 63.6495C51.6178 64.8204 50.7089 65.7123 49.5523 66.373C48.3601 67.0544 47.0569 67.4088 45.7356 67.7052C44.8005 67.9152 43.8369 67.9496 42.8897 67.8643C41.2469 67.7155 39.8447 67.0128 38.7848 65.7391C37.7731 64.5234 37.0884 63.13 36.8434 61.5528C36.7264 60.803 36.6422 60.0467 36.5749 59.2909C36.5005 58.4504 36.4497 57.6071 36.4114 56.7644C36.3627 55.6941 36.3272 54.6239 36.3037 53.5537C36.2747 52.2379 36.2654 50.9221 36.2468 49.6063L36.2435 49.556C35.5741 49.9574 34.9163 50.3971 34.2184 50.7591C33.4014 51.1835 32.5138 51.4296 31.5945 51.4991C30.8738 51.5537 30.1437 51.6035 29.4262 51.5461C28.2498 51.4515 27.0746 51.2672 26.0213 50.688C25.5942 50.4529 25.1485 50.1669 24.8543 49.7912C24.1488 48.891 24.4868 47.7535 25.5505 47.2061C26.2855 46.8271 27.0877 46.6691 27.8845 46.4848C28.5769 46.3245 29.2659 46.1424 29.9413 45.922C30.6096 45.7033 31.0313 45.1613 31.4474 44.6298L32.107 43.7816C31.8319 43.7526 31.5727 43.723 31.3134 43.699C30.5265 43.6246 29.7756 43.408 29.0576 43.0898C28.4429 42.818 28.4336 42.7884 27.983 43.2773C27.2305 44.0944 26.4988 44.9305 25.7616 45.7613C25.2191 46.3721 24.6798 46.9868 24.1401 47.5993C23.6052 48.2052 23.1043 48.8456 22.5284 49.4095C21.6731 50.2467 20.6423 50.7504 19.4123 50.6935C18.6232 50.6574 17.9008 50.3807 17.2511 49.9284C15.9102 48.9944 15.0067 47.6879 14.1842 46.3158C13.1304 44.5576 12.3216 42.6845 11.6292 40.7601C11.1502 39.4301 10.6689 38.099 10.2505 36.7498C9.79609 35.2837 9.39742 33.7989 9.00531 32.3147C8.70891 31.1947 8.44586 30.0654 8.19484 28.9339C7.90992 27.6471 7.63594 26.3581 7.39422 25.0626C7.23125 24.1881 7.13664 23.3011 7.00484 22.4206C6.82711 21.2339 6.7943 20.0362 6.85883 18.8446C6.91625 17.7711 7.07047 16.7003 7.22359 15.6339C7.43578 14.1584 7.92195 12.7661 8.62141 11.4514C9.04961 10.6459 9.58117 9.91359 10.1959 9.23328C11.2048 8.11656 12.426 7.30938 13.7845 6.70344C14.7338 6.28016 15.7368 6.02531 16.7589 5.82625C18.2759 5.53094 19.8066 5.54242 21.3379 5.57414C22.0073 5.58781 22.6739 5.70977 23.3427 5.77594C24.7827 5.91922 26.1941 6.22219 27.5876 6.59625C28.6031 6.86859 29.5979 7.22133 30.6052 7.52758C30.7064 7.5582 30.8546 7.55547 30.9372 7.50133C32.3022 6.61047 33.7941 6.02258 35.3805 5.68625C35.9827 5.55883 36.6039 5.50305 37.2197 5.46367C37.9684 5.41609 38.723 5.37234 39.4701 5.41555C40.368 5.46695 41.2616 5.5993 42.1541 5.7218C42.5873 5.78086 43.01 5.93125 43.4442 5.97227C43.652 5.99195 43.8724 5.83992 44.0923 5.78906C45.2128 5.53039 46.3284 5.24219 47.4588 5.03766C48.3005 4.88562 49.1602 4.81398 50.016 4.76477C50.9703 4.71008 51.9317 4.67016 52.8855 4.71609C54.0913 4.77406 55.2884 4.94578 56.4702 5.22086C57.9342 5.56156 59.3386 6.05648 60.6735 6.74336C61.671 7.25633 62.6193 7.85133 63.473 8.58305C64.0324 9.0632 64.605 9.53734 65.1103 10.0722C65.7338 10.7317 66.3698 11.3918 66.7608 12.2367C67.055 12.8738 67.265 13.5334 67.323 14.2312C67.3952 15.0985 67.4827 15.9691 67.4745 16.8376C67.4668 17.6683 67.3536 18.4984 67.2732 19.327C67.0905 21.2159 66.6798 23.0637 66.1811 24.887C65.7688 26.3931 65.287 27.8828 64.7652 29.355C64.2845 30.7118 63.73 32.044 63.1695 33.3707C62.7555 34.3518 62.3098 35.3225 61.8252 36.2708C60.9081 38.0678 59.9544 39.8463 58.8513 41.5388C58.661 41.8314 58.4805 42.1311 58.2946 42.4297C58.7759 42.7545 59.3211 42.8688 59.8702 42.9279C60.3924 42.9848 60.9251 43.0187 61.4468 42.9798C62.2819 42.918 63.1142 42.7988 63.9444 42.6823C64.7669 42.5675 65.573 42.3334 66.4173 42.3952C67.2606 42.4565 67.8638 43.0974 67.8064 43.8877ZM55.768 42.054C55.4098 41.5913 55.0445 41.1341 54.694 40.666C54.1438 39.931 53.7484 39.1102 53.3514 38.2855C52.9752 37.504 52.5136 36.7641 52.1171 35.9913C51.4253 34.6433 50.7209 33.2996 50.0838 31.9253C49.2827 30.1988 48.651 28.4111 48.452 26.4987C48.3677 25.6893 48.3464 24.881 48.5099 24.0793C48.7719 22.7991 49.4407 21.7977 50.5651 21.1109C51.608 20.4738 52.7701 20.2681 53.9606 20.2036C54.6995 20.1637 55.4416 20.1965 56.2083 20.1965L56.1826 20.0669C55.7057 19.0699 55.26 18.056 54.7383 17.0826C54.0022 15.7088 53.0605 14.4702 52.0116 13.3217C51.2345 12.4713 50.3928 11.6822 49.4708 10.9849C48.5641 10.2986 47.6087 9.68555 46.5893 9.18406C45.3736 8.58633 44.1076 8.12422 42.7792 7.82945C41.5028 7.54617 40.2182 7.37281 38.909 7.35859C37.7923 7.34656 36.6827 7.39688 35.5949 7.64898C33.9532 8.02906 32.4515 8.705 31.145 9.79984C30.4155 10.4113 29.7789 11.0976 29.2216 11.8616C28.5676 12.7601 28.0398 13.7302 27.5887 14.7474C26.9696 16.143 26.5447 17.5955 26.2543 19.0885C26.1088 19.8328 25.9951 20.5837 25.8791 21.334C25.8387 21.5965 25.8354 21.865 25.8119 22.1658C26.0137 22.0608 26.1591 21.9798 26.3079 21.9077L26.7919 21.6905C28.4287 20.9419 30.1245 20.4601 31.9473 20.5153C32.7216 20.5388 33.4627 20.692 34.1512 21.031C35.4719 21.6823 36.2446 22.7898 36.5804 24.1914C36.8123 25.1588 36.9709 26.1454 37.1251 27.1292C37.2459 27.8976 37.3695 28.6741 37.3838 29.4491C37.404 30.5816 37.3466 31.7164 37.2848 32.8484C37.2323 33.8131 37.031 34.7625 36.6941 35.6627C36.0816 37.2995 35.3991 38.9095 34.7615 40.537C34.5509 41.0745 34.3891 41.6313 34.19 42.2224C34.4973 42.2224 34.7467 42.2202 34.9961 42.2235C35.0934 42.2252 35.193 42.2279 35.287 42.2503C36.0198 42.4231 36.6553 42.7551 37.1765 43.3189C37.8716 44.0692 38.2363 44.9448 38.2549 45.9581C38.2653 46.5198 38.2062 47.083 38.209 47.6447C38.2205 50.262 38.2402 52.8794 38.262 55.4962C38.2659 55.9238 38.2872 56.352 38.3178 56.7791C38.3818 57.6733 38.4463 58.568 38.5338 59.4599C38.5951 60.0927 38.6804 60.7243 38.7805 61.3527C38.9221 62.243 39.3273 63.0354 39.7873 63.7928C40.1832 64.4441 40.6978 64.9976 41.3759 65.3793C42.5282 66.0279 43.7691 66.082 45.0198 65.843C45.8647 65.6817 46.6943 65.4225 47.5146 65.1551C48.3234 64.892 49.0541 64.4611 49.6677 63.8677C50.2424 63.3105 50.6504 62.6312 50.9255 61.8815C51.4592 60.4273 51.6255 58.8961 51.8464 57.3769C51.929 56.8081 52.0006 56.2377 52.0761 55.6679C52.162 55.0193 52.2489 54.3712 52.332 53.7232C52.3933 53.2403 52.4491 52.7563 52.5081 52.2734C52.5923 51.58 52.6815 50.8871 52.7619 50.1931C52.8237 49.6566 52.8762 49.118 52.9309 48.5804C53.0014 47.8935 53.0774 47.2066 53.1381 46.5187C53.1852 45.9964 53.166 45.4648 53.2584 44.9524C53.4285 44.0129 53.8726 43.2134 54.7055 42.6966C55.0538 42.4805 55.447 42.3384 55.8337 42.1557L55.768 42.054ZM24.2697 38.1974C23.8535 37.212 23.6036 36.1849 23.5292 35.1229C23.4592 34.1248 23.5779 33.1306 23.6802 32.137C23.7797 31.1745 23.8623 30.2076 23.8912 29.2407C23.9394 27.6515 23.8322 26.0645 23.7562 24.4763C23.7102 23.5308 23.8202 22.5737 23.9044 21.626C23.9804 20.7723 24.075 19.9165 24.2363 19.0754C24.507 17.6639 24.8663 16.2727 25.3771 14.9241C25.8622 13.6455 26.4195 12.4002 27.2064 11.2791C27.7456 10.5102 28.3576 9.79164 28.9455 9.04023L28.771 8.97844C26.858 8.37086 24.9139 7.89617 22.9145 7.68891C21.969 7.59102 21.0202 7.53359 20.0719 7.47727C19.7809 7.45977 19.4856 7.49914 19.1936 7.52703C18.4706 7.59594 17.7389 7.62328 17.0274 7.75891C15.8166 7.98914 14.6551 8.37633 13.5794 9.00688C12.6136 9.57289 11.8026 10.3046 11.1234 11.1823C10.373 12.1514 9.86828 13.2473 9.5057 14.416C9.0775 15.7947 8.87352 17.2133 8.81828 18.645C8.77016 19.9001 8.74609 21.1623 8.96266 22.4124C9.12398 23.3432 9.23172 24.2838 9.40945 25.2108C9.65172 26.4746 9.91148 27.7357 10.2117 28.9864C10.641 30.7769 11.0698 32.5701 11.5784 34.3387C12.0651 36.0334 12.6141 37.7129 13.2091 39.3721C13.6959 40.7262 14.2586 42.0551 14.8514 43.3665C15.2375 44.2207 15.7051 45.0427 16.1951 45.8427C16.7163 46.692 17.3091 47.4981 18.1135 48.1145C19.1285 48.8927 19.9144 49.0135 20.9458 48.1598C21.3877 47.794 21.7612 47.3423 22.1456 46.9119C22.7565 46.2283 23.346 45.5261 23.9541 44.8403C24.7285 43.9664 25.5127 43.1018 26.2909 42.2323C26.4555 42.0485 26.6136 41.8593 26.7738 41.6734L26.5091 41.4409C25.5417 40.5118 24.7925 39.4345 24.2697 38.1974ZM53.6303 12.1831C54.2625 12.9247 54.8745 13.6881 55.4399 14.4822C56.5337 16.0184 57.4076 17.677 58.0513 19.4516C58.3362 20.2337 58.5637 21.0234 58.462 21.8792C58.3914 22.4786 58.3974 23.0867 58.3444 23.6894C58.3001 24.1909 58.2208 24.6896 58.1557 25.1895C58.0584 25.943 57.9173 26.6945 57.8752 27.4513C57.8352 28.1716 57.8768 28.8995 57.9222 29.6213C57.9681 30.3547 58.0671 31.0848 58.1344 31.817C58.2104 32.6472 58.3127 33.4773 58.3362 34.3091C58.3553 34.9922 58.2946 35.6796 58.235 36.3616C58.1639 37.183 57.9555 37.9781 57.6449 38.741C57.4267 39.278 57.1659 39.7987 56.9192 40.3363L57.0182 40.4412L57.1686 40.5577L57.3201 40.2865C58.5992 38.2696 59.7373 36.1751 60.7227 34.0012C61.3566 32.6012 61.9505 31.1816 62.5203 29.7542C63.4084 27.5317 64.1112 25.2469 64.6548 22.9166C64.8987 21.8705 65.0852 20.8084 65.2509 19.7464C65.3799 18.9163 65.4877 18.0762 65.5117 17.2384C65.5374 16.3498 65.4882 15.454 65.4062 14.5675C65.3449 13.8981 65.1798 13.2244 64.7603 12.6802C64.086 11.8041 63.3581 10.9663 62.4629 10.3035C61.7093 9.74516 60.9584 9.17258 60.1496 8.70281C58.8672 7.95906 57.4792 7.46359 56.0289 7.12617C54.6136 6.79641 53.1797 6.65422 51.7365 6.62414C50.8855 6.60609 50.0308 6.69742 49.1815 6.77727C48.412 6.84945 47.6475 6.9725 46.8726 7.07422C47.7038 7.5418 48.5236 7.95742 49.2969 8.44742C50.9227 9.47719 52.3796 10.7164 53.6303 12.1831ZM32.5073 41.0155C33.0328 39.3349 33.7487 37.7304 34.4421 36.116C35.0043 34.8068 35.3116 33.4276 35.4139 32.0112C35.4648 31.3128 35.4505 30.6057 35.4161 29.9052C35.3773 29.127 35.3149 28.3466 35.2017 27.576C35.0563 26.5911 34.8905 25.6056 34.6576 24.6388C34.4049 23.5926 33.7678 22.8641 32.6763 22.5956C32.0113 22.4321 31.3506 22.4387 30.6785 22.5448C29.0368 22.8034 27.534 23.4083 26.134 24.2942C25.8523 24.4725 25.6976 24.6163 25.7463 25.0205C25.8491 25.8763 25.8715 26.7459 25.8677 27.6099C25.8622 28.8327 25.8102 30.0555 25.7637 31.2778C25.7484 31.6759 25.691 32.0719 25.6484 32.4684C25.5827 33.0754 25.4564 33.6819 25.4602 34.2878C25.4641 34.9123 25.528 35.5516 25.6795 36.1565C26.1608 38.0744 27.1802 39.6439 28.8509 40.7513C29.8784 41.4322 31.0154 41.7756 32.2634 41.8407C32.3481 41.5541 32.4236 41.2834 32.5073 41.0155ZM30.5462 24.5616C30.3263 24.1001 30.4521 23.7178 30.9618 23.5406C31.0859 23.4969 31.2139 23.4504 31.343 23.4378C31.5202 23.4203 31.7006 23.4334 31.88 23.4334C32.5264 23.4367 33.1482 23.527 33.682 23.9382C34.0243 24.2018 34.1162 24.5518 33.8947 24.9111C33.5802 25.4208 33.1006 25.6767 32.5116 25.7259C31.5836 25.803 30.9323 25.3705 30.5462 24.5616ZM56.2712 24.3932C56.3455 23.7785 56.4052 23.1622 56.4812 22.5475C56.5118 22.3003 56.3816 22.2336 56.1744 22.2276C55.5225 22.2095 54.8706 22.1866 54.2188 22.1745C53.4838 22.1614 52.7684 22.2795 52.0881 22.559C51.3334 22.8696 50.7587 23.3673 50.5241 24.1887C50.3491 24.8012 50.302 25.4131 50.3638 26.0535C50.4579 27.0297 50.6745 27.9769 51.0162 28.8841C51.4723 30.0988 51.9498 31.3128 52.5202 32.4766C53.2929 34.0521 54.1673 35.5773 54.9882 37.1288C55.2075 37.5428 55.3918 37.9748 55.6204 38.4583C56.0989 37.4449 56.3324 36.4305 56.3592 35.3837C56.3816 34.5033 56.3111 33.619 56.2597 32.738C56.2274 32.1987 56.1514 31.6628 56.0989 31.1247C56.0256 30.3749 55.9146 29.6257 55.8977 28.8743C55.8807 28.1103 55.9348 27.342 56.0005 26.5791C56.0623 25.8473 56.1831 25.1216 56.2712 24.3932ZM54.8006 23.8015C54.5584 24.4703 54.0405 24.8477 53.3689 24.9587C52.7427 25.0615 52.1942 24.8302 51.7863 24.3309C51.4959 23.9754 51.6069 23.5543 52.0422 23.3142C52.542 23.0375 53.0916 22.9675 53.7397 22.9254C53.9158 22.9577 54.181 22.9845 54.4331 23.0566C54.799 23.16 54.9341 23.4351 54.8006 23.8015ZM35.4292 44.3968C35.071 44.1042 34.5974 44.0873 34.2567 44.4083C33.834 44.8075 33.4621 45.2641 33.0902 45.7142C32.6609 46.2343 32.2584 46.7752 31.7045 47.1782C30.8984 47.7639 29.9588 48.0067 29.0144 48.2364C28.2635 48.4191 27.5094 48.5886 26.7563 48.7641L26.747 48.8615C26.9707 48.9648 27.1873 49.0939 27.4202 49.1677C28.5687 49.5314 29.7368 49.7124 30.9503 49.6096C31.8264 49.5352 32.6609 49.3444 33.4517 48.9692C34.54 48.4535 35.3773 47.6365 36.0893 46.686C36.2085 46.5274 36.2627 46.2928 36.2769 46.0883C36.3255 45.3659 35.9586 44.8288 35.4292 44.3968ZM63.7305 44.6845C62.8063 44.7834 61.881 44.8884 60.9541 44.9415C60.5067 44.9672 60.0528 44.8819 59.6011 44.8452C58.8437 44.784 58.1043 44.6155 57.4639 44.2109C57.0931 43.9773 56.7852 43.9511 56.3915 44.0834C55.8293 44.2727 55.3705 44.5603 55.2348 45.1695C55.1424 45.5813 55.1091 46.0079 55.0719 46.4295C55.0648 46.5039 55.1577 46.6406 55.2288 46.6592C55.6625 46.7735 56.0984 46.9086 56.5419 46.9485C57.0866 46.9977 57.6411 46.9819 58.1896 46.9545C58.7819 46.925 59.378 46.8867 59.9615 46.7883C61.3369 46.5575 62.6674 46.1812 63.8492 45.4014C64.2752 45.1198 64.6974 44.8321 65.1207 44.5472L65.0857 44.487C64.634 44.5543 64.1845 44.6363 63.7305 44.6845Z"
          fill="#336791"/>
</svg>
