<svg width="48" height="47" viewBox="0 0 48 47" fill="none" xmlns="http://www.w3.org/2000/svg">
    <rect x="0.666992" width="46.6667" height="46.6667" rx="19" fill="white"/>
    <path d="M36.639 18.4915C35.1808 17.9893 33.8936 17.0862 32.9251 15.8859C31.8577 14.5486 30.4986 13.4732 28.9516 12.7418C27.4047 12.0105 25.711 11.6427 24.0001 11.6665C21.6986 11.5035 19.4201 12.2134 17.6185 13.6547C15.8168 15.0961 14.6241 17.1631 14.2779 19.4443C14.9598 18.3034 15.986 17.4082 17.2089 16.8876C18.4319 16.3669 19.7884 16.2477 21.0834 16.5471C22.5392 17.0639 23.8243 17.9722 24.7973 19.1721C25.8706 20.4987 27.2323 21.5631 28.7789 22.2841C30.3255 23.0052 32.0162 23.364 33.7223 23.3332C36.0238 23.4962 38.3023 22.7863 40.104 21.345C41.9057 19.9036 43.0984 17.8365 43.4446 15.5554C42.7751 16.7099 41.7521 17.6186 40.5267 18.1473C39.3012 18.676 37.9383 18.7967 36.639 18.4915ZM11.3612 28.1748C12.8194 28.6771 14.1066 29.5801 15.0751 30.7804C16.1425 32.1177 17.5017 33.1932 19.0486 33.9245C20.5955 34.6558 22.2892 35.0237 24.0001 34.9998C26.3016 35.1628 28.5801 34.453 30.3818 33.0116C32.1834 31.5703 33.3761 29.5032 33.7223 27.2221C33.0405 28.363 32.0142 29.2581 30.7913 29.7788C29.5683 30.2994 28.2118 30.4186 26.9168 30.1193C25.461 29.6024 24.1759 28.6941 23.2029 27.4943C22.1267 26.1709 20.7645 25.1089 19.2185 24.3881C17.6726 23.6674 15.9834 23.3067 14.2779 23.3332C11.9764 23.1702 9.69791 23.88 7.89623 25.3214C6.09455 26.7627 4.90186 28.8298 4.55566 31.1109C5.22515 29.9564 6.24812 29.0477 7.47356 28.519C8.699 27.9903 10.062 27.8696 11.3612 28.1748Z"
          fill="black"/>
</svg>
