<svg width="48" height="47" viewBox="0 0 48 47" fill="none" xmlns="http://www.w3.org/2000/svg">
    <g clip-path="url(#clip0_120_84)">
        <path d="M0.666992 23.3333V46.6667H47.3337V0H0.666992V23.3333Z" fill="#1677C7"/>
        <path d="M24.0003 0H0.666992V46.6667H24.0003V0Z" fill="#1368AD"/>
        <path d="M28.9837 38.1617C29.1937 38.0412 29.9773 37.5901 30.7181 37.1603L32.0598 36.3826L32.3417 36.7987C32.7365 37.3976 33.592 38.2201 34.1112 38.4962C35.6006 39.2817 37.6442 39.1728 38.6515 38.2667C39.0267 37.9478 39.262 37.4773 39.262 36.9542L39.2601 36.8628V36.8667C39.2601 36.3262 39.192 36.089 38.9101 35.6826C38.5484 35.1634 37.8076 34.7298 35.7037 33.814C33.2984 32.7776 32.2601 32.1359 31.3131 31.1131C30.7415 30.4637 30.3001 29.6801 30.0434 28.8226L30.0317 28.7798C29.8548 28.1206 29.8101 26.4659 29.9501 25.8028C30.4459 23.4773 32.2017 21.8576 34.7354 21.3753C35.5579 21.2198 37.4692 21.2762 38.2762 21.4784V21.4803C39.4623 21.7778 40.3645 22.3028 41.1948 23.1623C41.6245 23.6192 42.2623 24.4573 42.3129 24.6576C42.3284 24.7178 40.2984 26.077 39.0695 26.8412C39.0248 26.8684 38.8459 26.6778 38.6476 26.3823C38.0448 25.5073 37.4167 25.1301 36.4542 25.062C35.0387 24.9648 34.1287 25.7056 34.1345 26.9442L34.1326 27.0162C34.1326 27.3078 34.2065 27.5859 34.3367 27.8251L34.3329 27.8173C34.6459 28.4609 35.2234 28.8478 37.0376 29.6315C40.3801 31.0684 41.8092 32.0153 42.6979 33.3648C43.6895 34.8678 43.9131 37.2692 43.2384 39.0542C42.4995 40.9948 40.662 42.3131 38.0759 42.7467C37.2767 42.8887 35.379 42.8673 34.5215 42.7137C32.647 42.3792 30.8698 41.4517 29.7731 40.2365C29.3434 39.7659 28.5054 38.5273 28.5579 38.4398C28.5773 38.4048 28.7698 38.2842 28.9837 38.1617ZM10.8926 23.4578C10.8926 22.4215 10.912 21.5542 10.9431 21.5348C10.9645 21.5017 14.6629 21.4862 19.1429 21.494L27.2998 21.5153L27.3212 23.4209L27.3367 25.3323H21.2604V42.5912H16.9612V25.3323H10.8926V23.4578Z"
              fill="white"/>
        <path d="M41.5138 32.0601H32.373C33.1352 32.6201 34.125 33.1295 35.7038 33.8101C37.8097 34.7259 38.5486 35.1614 38.9102 35.6787C39.1922 36.0851 39.2602 36.3223 39.2602 36.8628V36.8589L39.2622 36.9503C39.2622 37.4753 39.0269 37.9439 38.6516 38.2628C38.0975 38.7606 37.2302 39.0173 36.3144 39.0173C35.5638 39.0173 34.7822 38.8462 34.1113 38.4923C33.5922 38.2181 32.7347 37.3956 32.3419 36.7948L32.06 36.3787L30.7183 37.1564C29.9775 37.5862 29.1938 38.0373 28.9838 38.1578C28.77 38.2803 28.5775 38.4009 28.5561 38.432C28.5036 38.5195 29.3416 39.7581 29.7713 40.2287C30.868 41.4439 32.6452 42.3714 34.5197 42.7059C34.9883 42.7895 35.7661 42.8342 36.505 42.8342C37.1213 42.8342 37.7105 42.8031 38.0741 42.7389C40.6602 42.3053 42.4977 40.987 43.2366 39.0464C43.9113 37.2614 43.6877 34.8601 42.6961 33.357C42.3869 32.8923 42.0116 32.4703 41.5138 32.0601Z"
              fill="#DEDEDE"/>
        <path d="M21.2611 32.0601H16.9619V42.5931H21.2611V32.0601Z" fill="#DEDEDE"/>
    </g>
    <defs>
        <clipPath id="clip0_120_84">
            <rect width="46.6667" height="46.6667" fill="white" transform="translate(0.666992)"/>
        </clipPath>
    </defs>
</svg>
