<svg width="511" height="654" viewBox="0 0 511 654" fill="none" xmlns="http://www.w3.org/2000/svg">
<rect width="410.229" height="375.444" rx="10" transform="matrix(0.991909 -0.126953 0.134196 0.990955 0.804688 257.916)" fill="#D9D9D9"/>
<rect width="410.229" height="375.444" rx="10" transform="matrix(0.991909 -0.126953 0.134196 0.990955 18.8184 177.08)" fill="white"/>
<rect width="410.229" height="374.82" rx="10" transform="matrix(0.991909 0.126953 -0.134196 0.990955 104.091 206.484)" fill="#D9D9D9"/>
<rect width="298.092" height="374.82" rx="10" transform="matrix(0.991909 0.126953 -0.134196 0.990955 201.947 145.236)" fill="white"/>
<g filter="url(#filter0_d_77_26)">
<rect x="50.7051" y="101" width="410.421" height="545" rx="10" fill="black"/>
<rect x="52.2051" y="102.5" width="407.421" height="542" rx="8.5" stroke="white" stroke-width="3"/>
</g>
<rect x="50.7051" width="410.421" height="101" fill="black"/>
<g clip-path="url(#clip0_77_26)">
<path d="M326.722 319.18H185.11C183.972 319.18 182.88 319.62 182.075 320.402C181.27 321.184 180.818 322.246 180.818 323.352C180.818 324.459 181.27 325.52 182.075 326.302C182.88 327.084 183.972 327.524 185.11 327.524H326.722C327.86 327.524 328.952 327.084 329.757 326.302C330.561 325.52 331.013 324.459 331.013 323.352C331.013 322.246 330.561 321.184 329.757 320.402C328.952 319.62 327.86 319.18 326.722 319.18ZM331.013 344.212C331.013 343.105 330.561 342.044 329.756 341.262C328.952 340.479 327.86 340.04 326.722 340.04H185.11C183.972 340.04 182.88 340.479 182.075 341.262C181.27 342.044 180.818 343.105 180.818 344.212C180.818 345.318 181.27 346.379 182.075 347.162C182.88 347.944 183.972 348.384 185.11 348.384H326.722C327.86 348.383 328.952 347.944 329.756 347.162C330.561 346.379 331.013 345.318 331.013 344.212ZM249.479 365.071C249.479 363.965 249.027 362.904 248.222 362.121C247.417 361.339 246.326 360.899 245.188 360.899H185.11C183.972 360.899 182.88 361.339 182.075 362.121C181.27 362.904 180.818 363.965 180.818 365.071C180.818 366.178 181.27 367.239 182.075 368.021C182.88 368.804 183.972 369.243 185.11 369.243H245.188C246.326 369.243 247.417 368.803 248.222 368.021C249.027 367.239 249.479 366.178 249.479 365.071ZM180.818 404.704C180.818 408.005 181.825 411.231 183.711 413.975C185.597 416.72 188.278 418.858 191.415 420.122C194.551 421.385 198.003 421.715 201.332 421.071C204.662 420.427 207.721 418.838 210.121 416.504C212.522 414.17 214.157 411.197 214.819 407.96C215.481 404.723 215.141 401.367 213.842 398.318C212.543 395.269 210.343 392.663 207.52 390.829C204.697 388.995 201.378 388.017 197.984 388.017C193.433 388.022 189.07 389.782 185.852 392.91C182.634 396.038 180.823 400.28 180.818 404.704ZM206.566 404.704C206.566 406.355 206.063 407.968 205.12 409.34C204.177 410.712 202.836 411.781 201.268 412.413C199.7 413.045 197.974 413.21 196.309 412.888C194.644 412.566 193.115 411.771 191.915 410.604C190.714 409.437 189.897 407.951 189.566 406.332C189.235 404.714 189.405 403.036 190.054 401.511C190.704 399.987 191.804 398.684 193.215 397.767C194.627 396.85 196.286 396.361 197.984 396.361C200.26 396.361 202.443 397.24 204.052 398.804C205.662 400.369 206.566 402.491 206.566 404.704Z" fill="white"/>
<path d="M380.363 262.859H131.469C128.055 262.863 124.783 264.183 122.369 266.529C119.956 268.876 118.598 272.057 118.595 275.375V446.424C118.598 449.742 119.956 452.923 122.369 455.269C124.783 457.616 128.055 458.936 131.469 458.939H261.49L267.617 450.596H131.469C130.331 450.594 129.24 450.154 128.436 449.372C127.631 448.59 127.179 447.53 127.177 446.424V275.375C127.179 274.269 127.631 273.209 128.436 272.427C129.24 271.645 130.331 271.205 131.469 271.203H380.363C381.501 271.205 382.592 271.645 383.396 272.427C384.2 273.209 384.653 274.269 384.655 275.375V446.424C384.653 447.53 384.2 448.59 383.396 449.372C382.592 450.154 381.501 450.594 380.363 450.595H351.498L357.626 458.939H380.363C383.776 458.936 387.049 457.616 389.462 455.269C391.876 452.923 393.233 449.742 393.237 446.423V275.375C393.233 272.057 391.876 268.876 389.462 266.529C387.049 264.183 383.776 262.863 380.363 262.859Z" fill="white"/>
<path d="M296.486 465.902L288.991 475.979L288.14 471.899C287.955 470.489 287.222 469.202 286.091 468.302C285.469 467.808 284.75 467.443 283.978 467.228C283.206 467.014 282.397 466.956 281.601 467.057L276.232 467.583L284.405 456.452C281.508 455.884 278.773 454.708 276.392 453.006L265.599 467.705C264.935 468.582 264.555 469.631 264.507 470.718C264.459 471.806 264.745 472.883 265.328 473.812C265.92 474.75 266.78 475.501 267.803 475.974C268.826 476.446 269.968 476.619 271.09 476.472L280.151 475.584L281.747 483.241C281.88 484.318 282.335 485.333 283.057 486.16C283.779 486.987 284.735 487.59 285.806 487.892C286.365 488.057 286.945 488.14 287.528 488.141C288.451 488.141 289.362 487.93 290.185 487.525C291.009 487.121 291.723 486.533 292.27 485.81L307.711 465.046C305.46 465.934 303.058 466.407 300.629 466.442C299.229 466.438 297.837 466.256 296.486 465.902ZM342.722 453.005C340.34 454.707 337.606 455.883 334.708 456.452L342.881 467.582L337.513 467.057C336.717 466.956 335.908 467.014 335.136 467.228C334.363 467.442 333.644 467.807 333.023 468.301C331.892 469.202 331.158 470.489 330.973 471.899L330.123 475.977L322.614 465.881C318.878 466.78 314.943 466.483 311.394 465.035L326.864 485.839C327.411 486.555 328.122 487.136 328.942 487.536C329.761 487.936 330.666 488.143 331.583 488.141C332.168 488.14 332.749 488.056 333.308 487.892C334.379 487.59 335.335 486.987 336.057 486.16C336.779 485.333 337.234 484.318 337.367 483.241L338.963 475.584L348.023 476.472C349.146 476.62 350.288 476.447 351.312 475.975C352.335 475.503 353.194 474.751 353.786 473.812C354.367 472.89 354.654 471.822 354.611 470.742C354.568 469.662 354.197 468.619 353.545 467.743L342.722 453.005ZM320.832 457.733C323.648 456.541 325.871 454.325 327.026 451.559C327.42 450.761 327.905 450.009 328.472 449.316C329.342 448.991 330.249 448.764 331.173 448.64C332.702 448.678 334.217 448.354 335.589 447.698C336.961 447.041 338.149 446.07 339.05 444.869C339.952 443.668 340.54 442.273 340.765 440.802C340.989 439.331 340.843 437.829 340.34 436.426C340.174 435.522 340.116 434.602 340.168 433.686C340.661 432.965 341.234 432.3 341.878 431.702C344.249 429.764 345.741 426.997 346.033 423.999C345.741 421.001 344.249 418.235 341.878 416.297C341.239 415.702 340.668 415.043 340.174 414.329C340.116 413.408 340.172 412.482 340.34 411.573C341.076 408.713 340.618 405.685 339.066 403.152C337.054 400.923 334.216 399.56 331.173 399.359C330.254 399.235 329.352 399.011 328.484 398.691C327.911 397.996 327.421 397.24 327.024 396.438C325.87 393.672 323.646 391.455 320.83 390.266C317.898 389.626 314.826 390.136 312.279 391.685C311.419 392.137 310.505 392.481 309.557 392.71C308.609 392.481 307.694 392.137 306.835 391.685C304.287 390.137 301.214 389.627 298.282 390.266C295.466 391.457 293.243 393.674 292.088 396.44C291.694 397.238 291.209 397.99 290.642 398.683C289.772 399.008 288.865 399.235 287.941 399.359C284.898 399.559 282.06 400.922 280.048 403.15C278.496 405.684 278.038 408.712 278.774 411.573C278.94 412.477 278.998 413.397 278.946 414.313C278.453 415.034 277.879 415.699 277.236 416.297C274.865 418.235 273.373 421.001 273.081 423.999C273.373 426.997 274.865 429.764 277.236 431.702C277.875 432.296 278.446 432.956 278.94 433.669C278.998 434.591 278.942 435.517 278.774 436.426C278.271 437.829 278.125 439.331 278.35 440.802C278.575 442.272 279.163 443.668 280.064 444.869C280.966 446.07 282.153 447.04 283.525 447.697C284.897 448.354 286.413 448.677 287.941 448.64C288.86 448.764 289.762 448.988 290.63 449.308C291.203 450.003 291.693 450.759 292.09 451.561C293.244 454.327 295.468 456.543 298.284 457.733C299.047 457.974 299.845 458.096 300.647 458.094C302.82 457.953 304.933 457.344 306.835 456.313C307.694 455.862 308.609 455.518 309.557 455.289C310.505 455.518 311.419 455.862 312.279 456.313C314.827 457.862 317.9 458.372 320.832 457.733ZM303.172 448.768C302.45 449.121 301.704 449.428 300.941 449.687C300.453 449.013 300.015 448.306 299.629 447.572C298.834 445.562 297.457 443.818 295.664 442.553C293.872 441.287 291.74 440.553 289.528 440.441C288.699 440.31 287.88 440.123 287.078 439.882C287.091 439.077 287.161 438.274 287.288 437.479C287.719 435.363 287.656 433.181 287.103 431.092C286.304 429.136 285.059 427.381 283.461 425.959C282.833 425.353 282.256 424.697 281.737 423.999C282.256 423.302 282.833 422.646 283.461 422.04C285.059 420.618 286.304 418.863 287.103 416.906C287.656 414.817 287.719 412.634 287.288 410.518C287.162 409.722 287.092 408.919 287.078 408.114C287.881 407.875 288.699 407.689 289.528 407.558C291.741 407.447 293.873 406.714 295.666 405.448C297.459 404.182 298.836 402.438 299.629 400.426C300.014 399.692 300.453 398.986 300.941 398.312C301.704 398.571 302.45 398.878 303.172 399.231C305.077 400.421 307.293 401.054 309.557 401.054C311.821 401.054 314.037 400.421 315.941 399.231C316.664 398.878 317.409 398.571 318.173 398.312C318.661 398.986 319.099 399.692 319.485 400.426C320.28 402.437 321.657 404.18 323.45 405.446C325.242 406.712 327.374 407.445 329.586 407.558C330.415 407.689 331.233 407.876 332.036 408.116C332.023 408.921 331.953 409.724 331.826 410.52C331.395 412.635 331.458 414.818 332.011 416.906C332.81 418.863 334.055 420.618 335.652 422.04C336.281 422.646 336.858 423.302 337.377 423.999C336.858 424.697 336.281 425.353 335.652 425.959C334.055 427.381 332.81 429.136 332.011 431.092C331.458 433.182 331.395 435.365 331.826 437.481C331.952 438.276 332.022 439.08 332.036 439.884C331.233 440.123 330.415 440.309 329.586 440.441C327.373 440.552 325.241 441.284 323.448 442.55C321.655 443.816 320.278 445.561 319.485 447.572C319.099 448.306 318.661 449.013 318.173 449.687C317.409 449.428 316.664 449.121 315.941 448.768C314.037 447.578 311.821 446.945 309.557 446.945C307.293 446.945 305.077 447.578 303.172 448.768Z" fill="white"/>
<path d="M324.576 424C324.576 421.112 323.695 418.289 322.045 415.887C320.394 413.486 318.049 411.615 315.304 410.51C312.56 409.404 309.54 409.115 306.626 409.679C303.713 410.242 301.037 411.633 298.936 413.675C296.836 415.717 295.405 418.319 294.826 421.151C294.246 423.983 294.544 426.919 295.68 429.587C296.817 432.256 298.742 434.536 301.212 436.14C303.682 437.745 306.586 438.601 309.557 438.601C313.539 438.597 317.356 437.057 320.172 434.319C322.987 431.582 324.571 427.871 324.576 424ZM309.557 430.257C308.284 430.257 307.039 429.89 305.98 429.203C304.922 428.515 304.097 427.538 303.61 426.394C303.122 425.251 302.995 423.993 303.243 422.779C303.492 421.565 304.105 420.45 305.005 419.575C305.905 418.699 307.052 418.103 308.301 417.862C309.549 417.62 310.844 417.744 312.02 418.218C313.196 418.692 314.201 419.494 314.909 420.523C315.616 421.552 315.994 422.762 315.994 424C315.992 425.659 315.313 427.249 314.106 428.422C312.899 429.596 311.263 430.256 309.557 430.257Z" fill="white"/>
<path d="M367.489 442.252C369.765 442.249 371.947 441.37 373.556 439.805C375.165 438.241 376.07 436.12 376.072 433.908V287.891C376.07 285.679 375.165 283.558 373.556 281.993C371.947 280.429 369.765 279.549 367.489 279.547H144.342C142.067 279.549 139.885 280.429 138.276 281.993C136.667 283.558 135.762 285.679 135.76 287.891V433.908C135.762 436.12 136.667 438.241 138.276 439.805C139.885 441.37 142.067 442.249 144.342 442.252H270.093C269.865 440.346 269.873 438.421 270.116 436.517C269.335 435.691 268.606 434.819 267.933 433.908H144.342V320.386L177.415 288.233C177.518 288.124 177.614 288.01 177.703 287.891H334.129C334.218 288.01 334.314 288.124 334.416 288.233L367.491 320.387L367.496 433.908H351.18C350.507 434.819 349.778 435.691 348.998 436.517C349.241 438.421 349.249 440.346 349.021 442.251L367.489 442.252ZM144.342 308.587V287.891H165.631L144.342 308.587ZM346.2 287.891H367.489L367.49 308.588L346.2 287.891Z" fill="white"/>
</g>
<defs>
<filter id="filter0_d_77_26" x="46.7051" y="101" width="418.421" height="553" filterUnits="userSpaceOnUse" color-interpolation-filters="sRGB">
<feFlood flood-opacity="0" result="BackgroundImageFix"/>
<feColorMatrix in="SourceAlpha" type="matrix" values="0 0 0 0 0 0 0 0 0 0 0 0 0 0 0 0 0 0 127 0" result="hardAlpha"/>
<feOffset dy="4"/>
<feGaussianBlur stdDeviation="2"/>
<feComposite in2="hardAlpha" operator="out"/>
<feColorMatrix type="matrix" values="0 0 0 0 0 0 0 0 0 0 0 0 0 0 0 0 0 0 0.25 0"/>
<feBlend mode="normal" in2="BackgroundImageFix" result="effect1_dropShadow_77_26"/>
<feBlend mode="normal" in="SourceGraphic" in2="effect1_dropShadow_77_26" result="shape"/>
</filter>
<clipPath id="clip0_77_26">
<rect width="274.642" height="267" fill="white" transform="translate(118.595 242)"/>
</clipPath>
</defs>
</svg>
