<svg width="88" height="30" viewBox="0 0 88 30" fill="none" xmlns="http://www.w3.org/2000/svg">
<path d="M1.392 29.756C1.008 29.756 0.696 29.624 0.456 29.36C0.216 29.096 0.0960001 28.628 0.0960001 27.956C0.0960001 27.452 0.252 26.636 0.564 25.508C0.9 24.356 1.344 23.012 1.896 21.476C2.472 19.94 3.108 18.32 3.804 16.616C4.524 14.888 5.268 13.172 6.036 11.468C6.804 9.764 7.56 8.192 8.304 6.752C9.048 5.288 9.732 4.052 10.356 3.044C10.98 2.036 11.508 1.376 11.94 1.064C12.444 0.704 12.912 0.524 13.344 0.524C13.584 0.524 13.824 0.547999 14.064 0.595999C14.304 0.643998 14.508 0.727998 14.676 0.847998C15.108 1.112 15.48 1.7 15.792 2.612C16.128 3.5 16.416 4.592 16.656 5.888C16.896 7.16 17.088 8.528 17.232 9.992C17.4 11.432 17.544 12.86 17.664 14.276C18.384 14.18 18.984 14.108 19.464 14.06C19.944 14.012 20.292 13.988 20.508 13.988C21.324 13.988 21.84 14.096 22.056 14.312C22.272 14.528 22.392 14.78 22.416 15.068C22.464 15.5 22.344 15.884 22.056 16.22C21.768 16.556 21.36 16.808 20.832 16.976C20.664 17.024 20.304 17.108 19.752 17.228C19.224 17.324 18.588 17.444 17.844 17.588C17.868 18.308 17.88 18.98 17.88 19.604C17.904 20.204 17.916 20.72 17.916 21.152C17.916 23.336 17.784 24.98 17.52 26.084C17.256 27.164 16.932 27.896 16.548 28.28C16.164 28.664 15.792 28.856 15.432 28.856C15 28.856 14.7 28.736 14.532 28.496C14.364 28.232 14.28 27.86 14.28 27.38V24.824C14.28 23.936 14.268 22.928 14.244 21.8C14.244 20.648 14.232 19.436 14.208 18.164C12.792 18.404 11.352 18.632 9.888 18.848C8.448 19.064 7.2 19.256 6.144 19.424C5.616 20.792 5.16 22.028 4.776 23.132C4.392 24.212 4.128 25.04 3.984 25.616C3.624 26.816 3.3 27.716 3.012 28.316C2.724 28.892 2.448 29.276 2.184 29.468C1.944 29.66 1.68 29.756 1.392 29.756ZM7.368 16.22C8.616 15.932 9.804 15.668 10.932 15.428C12.084 15.188 13.14 14.984 14.1 14.816C14.028 12.656 13.896 10.592 13.704 8.624C13.536 6.632 13.284 5.06 12.948 3.908C12.492 4.7 11.952 5.756 11.328 7.076C10.704 8.396 10.044 9.86 9.348 11.468C8.676 13.052 8.016 14.636 7.368 16.22ZM27.141 29.684C26.757 29.684 26.433 29.528 26.169 29.216C25.905 28.904 25.773 28.472 25.773 27.92C25.773 27.512 25.857 26.84 26.025 25.904C26.217 24.944 26.421 23.828 26.637 22.556C26.877 21.284 27.081 19.964 27.249 18.596C27.417 17.204 27.501 15.872 27.501 14.6C27.501 13.976 27.657 13.52 27.969 13.232C28.305 12.92 28.677 12.764 29.085 12.764C29.469 12.764 29.757 13.004 29.949 13.484C30.141 13.964 30.177 14.924 30.057 16.364C31.161 13.916 32.373 11.948 33.693 10.46C35.037 8.948 36.369 7.868 37.689 7.22C39.009 6.548 40.197 6.212 41.253 6.212C41.949 6.212 42.453 6.356 42.765 6.644C43.101 6.908 43.269 7.208 43.269 7.544C43.269 8 43.077 8.36 42.693 8.624C42.333 8.864 41.697 9.152 40.785 9.488C39.729 9.896 38.757 10.376 37.869 10.928C37.005 11.456 36.177 12.152 35.385 13.016C34.617 13.88 33.861 14.984 33.117 16.328C32.373 17.648 31.629 19.28 30.885 21.224C30.141 23.168 29.349 25.508 28.509 28.244C28.365 28.772 28.173 29.144 27.933 29.36C27.717 29.576 27.453 29.684 27.141 29.684ZM53.779 13.484C53.779 14.252 53.539 15.008 53.059 15.752C52.579 16.472 51.943 17.168 51.151 17.84C50.359 18.488 49.483 19.1 48.523 19.676C47.563 20.252 46.603 20.756 45.643 21.188C44.683 21.62 43.807 21.968 43.015 22.232C42.823 23.168 42.727 23.996 42.727 24.716C42.727 25.172 42.835 25.496 43.051 25.688C43.267 25.88 43.603 25.976 44.059 25.976C45.067 25.976 46.135 25.796 47.263 25.436C48.391 25.076 49.543 24.608 50.719 24.032C51.895 23.456 53.023 22.844 54.103 22.196C55.183 21.548 56.167 20.936 57.055 20.36C57.967 19.784 58.723 19.316 59.323 18.956C59.923 18.596 60.319 18.416 60.511 18.416C60.799 18.416 61.015 18.512 61.159 18.704C61.327 18.872 61.411 19.076 61.411 19.316C61.411 19.508 61.111 19.88 60.511 20.432C59.935 20.984 59.155 21.632 58.171 22.376C57.187 23.096 56.083 23.84 54.859 24.608C53.635 25.376 52.363 26.096 51.043 26.768C49.747 27.44 48.487 27.98 47.263 28.388C46.063 28.796 44.983 29 44.023 29C42.775 29 41.803 28.532 41.107 27.596C40.411 26.66 40.063 25.208 40.063 23.24C40.063 21.92 40.231 20.588 40.567 19.244C40.927 17.9 41.407 16.616 42.007 15.392C42.631 14.144 43.315 13.04 44.059 12.08C44.827 11.096 45.631 10.328 46.471 9.776C47.311 9.2 48.127 8.912 48.919 8.912C50.431 8.912 51.619 9.332 52.483 10.172C53.347 11.012 53.779 12.116 53.779 13.484ZM43.771 19.46C44.515 19.004 45.283 18.524 46.075 18.02C46.867 17.516 47.599 17 48.271 16.472C48.943 15.944 49.483 15.392 49.891 14.816C50.323 14.216 50.539 13.604 50.539 12.98C50.539 12.092 50.059 11.648 49.099 11.648C48.499 11.648 47.863 12.032 47.191 12.8C46.543 13.544 45.919 14.516 45.319 15.716C44.719 16.916 44.203 18.164 43.771 19.46ZM59.7629 28.172C59.0669 28.172 58.4429 27.776 57.8909 26.984C57.3389 26.192 57.0629 25.172 57.0629 23.924C57.0629 22.556 57.2429 21.092 57.6029 19.532C57.9869 17.972 58.4549 16.388 59.0069 14.78C59.5589 13.148 60.0989 11.576 60.6269 10.064C60.7469 9.752 60.9149 9.524 61.1309 9.38C61.3709 9.212 61.7309 9.128 62.2109 9.128C63.0749 9.128 63.5069 9.548 63.5069 10.388C63.5069 10.58 63.4109 11.012 63.2189 11.684C63.0269 12.356 62.7749 13.184 62.4629 14.168C62.1749 15.152 61.8749 16.22 61.5629 17.372C61.2509 18.5 60.9749 19.64 60.7349 20.792C60.4949 21.944 60.3269 23.012 60.2309 23.996C60.6149 23.588 61.0469 22.964 61.5269 22.124C62.0309 21.284 62.5709 20.336 63.1469 19.28C63.7229 18.2 64.3229 17.12 64.9469 16.04C65.5709 14.936 66.1949 13.928 66.8189 13.016C67.4669 12.08 68.0909 11.336 68.6909 10.784C69.3149 10.208 69.8909 9.92 70.4189 9.92C71.1869 9.92 71.8349 10.16 72.3629 10.64C72.9149 11.096 73.3349 11.912 73.6229 13.088C73.9349 14.24 74.0909 15.872 74.0909 17.984C74.0909 19.112 74.1989 20.168 74.4149 21.152C74.6549 22.136 75.0269 22.928 75.5309 23.528C76.0589 24.104 76.7309 24.392 77.5469 24.392C78.7709 24.392 79.8629 24.176 80.8229 23.744C81.7829 23.288 82.6109 22.784 83.3069 22.232C84.0269 21.656 84.6269 21.152 85.1069 20.72C85.5869 20.264 85.9589 20.036 86.2229 20.036C86.7749 20.036 87.0509 20.324 87.0509 20.9C87.0509 21.14 86.8709 21.524 86.5109 22.052C86.1749 22.556 85.6949 23.132 85.0709 23.78C84.4709 24.404 83.7749 25.016 82.9829 25.616C82.2149 26.192 81.3869 26.672 80.4989 27.056C79.6349 27.44 78.7589 27.632 77.8709 27.632C76.2149 27.632 74.8589 27.308 73.8029 26.66C72.7709 26.012 72.0029 24.944 71.4989 23.456C71.0189 21.968 70.7789 19.976 70.7789 17.48C70.7789 16.112 70.6949 15.116 70.5269 14.492C70.3829 13.844 70.1069 13.412 69.6989 13.196C69.4109 13.7 69.0389 14.42 68.5829 15.356C68.1269 16.268 67.5989 17.288 66.9989 18.416C66.4229 19.544 65.8109 20.684 65.1629 21.836C64.5389 22.964 63.9029 24.008 63.2549 24.968C62.6069 25.928 61.9829 26.708 61.3829 27.308C60.7829 27.884 60.2429 28.172 59.7629 28.172Z" fill="white"/>
</svg>
