<svg width="32" height="32" viewBox="0 0 32 32" fill="none" xmlns="http://www.w3.org/2000/svg">
<path d="M29.8899 28.5499L16.8899 2.54987C16.7974 2.39654 16.6669 2.26971 16.511 2.18167C16.355 2.09363 16.179 2.04736 15.9999 2.04736C15.8209 2.04736 15.6448 2.09363 15.4889 2.18167C15.333 2.26971 15.2024 2.39654 15.1099 2.54987L2.10994 28.5499C2.03184 28.7019 1.99422 28.8716 2.00072 29.0424C2.00722 29.2133 2.05761 29.3795 2.14704 29.5252C2.23647 29.6709 2.36193 29.7912 2.51132 29.8743C2.6607 29.9574 2.82898 30.0007 2.99994 29.9999H28.9999C29.1709 30.0007 29.3392 29.9574 29.4886 29.8743C29.638 29.7912 29.7634 29.6709 29.8528 29.5252C29.9423 29.3795 29.9927 29.2133 29.9992 29.0424C30.0057 28.8716 29.968 28.7019 29.8899 28.5499ZM14.2499 11.3299C14.3454 11.2261 14.4614 11.1432 14.5904 11.0865C14.7195 11.0297 14.8589 11.0002 14.9999 10.9999H16.9999C17.141 11.0002 17.2804 11.0297 17.4094 11.0865C17.5385 11.1432 17.6544 11.2261 17.7499 11.3299C17.8423 11.4359 17.9113 11.5601 17.9527 11.6944C17.994 11.8288 18.0067 11.9703 17.9899 12.1099L16.9899 21.1099C16.9639 21.3543 16.8484 21.5804 16.6656 21.7448C16.4828 21.9091 16.2457 22 15.9999 22C15.7541 22 15.517 21.9091 15.3343 21.7448C15.1515 21.5804 15.036 21.3543 15.0099 21.1099L14.0099 12.1099C13.9932 11.9703 14.0059 11.8288 14.0472 11.6944C14.0885 11.5601 14.1576 11.4359 14.2499 11.3299ZM15.9999 26.9999C15.6044 26.9999 15.2177 26.8826 14.8888 26.6628C14.5599 26.443 14.3036 26.1307 14.1522 25.7652C14.0008 25.3998 13.9612 24.9977 14.0384 24.6097C14.1155 24.2217 14.306 23.8654 14.5857 23.5857C14.8654 23.306 15.2218 23.1155 15.6098 23.0383C15.9977 22.9611 16.3999 23.0007 16.7653 23.1521C17.1308 23.3035 17.4431 23.5598 17.6629 23.8887C17.8826 24.2176 17.9999 24.6043 17.9999 24.9999C17.9984 25.5298 17.7872 26.0376 17.4124 26.4124C17.0377 26.7871 16.5299 26.9983 15.9999 26.9999Z" fill="#FF0000"/>
</svg>
