<svg width="40" height="40" viewBox="0 0 40 40" fill="none" xmlns="http://www.w3.org/2000/svg">
<path d="M38.5512 2.21336L38.5531 2.21763C38.6253 2.38705 38.6637 2.56892 38.6663 2.75306V14.2499C38.6663 14.6256 38.5171 14.986 38.2514 15.2517C37.9857 15.5173 37.6254 15.6666 37.2497 15.6666C36.874 15.6666 36.5136 15.5173 36.2479 15.2517C35.9823 14.986 35.833 14.6256 35.833 14.2499V7.36908V6.16115L34.9793 7.0157L15.2568 26.7574L15.2555 26.7587C15.1238 26.8914 14.9671 26.9968 14.7945 27.0687L14.9868 27.5303L14.7945 27.0687C14.6219 27.1407 14.4367 27.1777 14.2497 27.1777C14.0627 27.1777 13.8775 27.1407 13.7049 27.0687L13.5126 27.5303L13.7049 27.0687C13.5322 26.9968 13.3755 26.8914 13.2438 26.7587L13.2409 26.7557C13.1082 26.6241 13.0028 26.4674 12.9308 26.2947C12.8589 26.1221 12.8219 25.9369 12.8219 25.7499C12.8219 25.5629 12.8589 25.3777 12.9308 25.2051C13.0028 25.0325 13.1082 24.8758 13.2409 24.7441L13.2422 24.7428L32.9839 5.02031L33.8384 4.16659H32.6305H25.7497C25.374 4.16659 25.0136 4.01733 24.7479 3.75165C24.4823 3.48598 24.333 3.12564 24.333 2.74992C24.333 2.37419 24.4823 2.01386 24.7479 1.74818C25.0136 1.48251 25.374 1.33325 25.7497 1.33325H37.2464C37.4306 1.33584 37.6125 1.37432 37.782 1.44655L37.782 1.44657L37.7862 1.44835C38.1324 1.59211 38.4075 1.86719 38.5512 2.21336ZM30.4979 18.6532C30.7636 18.3875 31.124 18.2383 31.4997 18.2383C31.8754 18.2383 32.2357 18.3875 32.5014 18.6532C32.7671 18.9189 32.9163 19.2792 32.9163 19.6549V33.4166C32.9163 34.809 32.3632 36.1443 31.3787 37.1289C30.3941 38.1135 29.0587 38.6666 27.6663 38.6666H6.58301C5.19062 38.6666 3.85526 38.1135 2.8707 37.1289C1.88613 36.1443 1.33301 34.809 1.33301 33.4166V12.3333C1.33301 10.9409 1.88613 9.60551 2.8707 8.62094C3.85526 7.63637 5.19062 7.08325 6.58301 7.08325H20.3447C20.7204 7.08325 21.0807 7.23251 21.3464 7.49818C21.6121 7.76386 21.7613 8.12419 21.7613 8.49992C21.7613 8.87564 21.6121 9.23598 21.3464 9.50165C21.0807 9.76733 20.7204 9.91658 20.3447 9.91658H6.58301C5.94207 9.91658 5.32738 10.1712 4.87417 10.6244C4.42095 11.0776 4.16634 11.6923 4.16634 12.3333V33.4166C4.16634 34.0575 4.42095 34.6722 4.87417 35.1254C5.32738 35.5786 5.94207 35.8333 6.58301 35.8333H27.6663C28.3073 35.8333 28.922 35.5786 29.3752 35.1254C29.8284 34.6722 30.083 34.0575 30.083 33.4166V19.6549C30.083 19.2792 30.2323 18.9189 30.4979 18.6532Z" fill="white" stroke="black"/>
</svg>
