<svg width="31" height="31" viewBox="0 0 31 31" fill="none" xmlns="http://www.w3.org/2000/svg">
<rect x="0.53125" width="30.0864" height="30.0864" rx="3" fill="white"/>
<path d="M15.5742 4.29846C13.0228 4.29857 10.5546 5.22952 8.61136 6.92473C6.66812 8.61994 5.37659 10.9688 4.96789 13.551C4.55918 16.1332 5.05995 18.7803 6.38061 21.0186C7.66198 23.1903 9.63403 24.8396 11.961 25.6916C12.1036 25.7438 12.2516 25.7922 12.4032 25.7834C12.7712 25.7622 12.9148 25.4886 12.9148 25.2444C12.9148 24.1786 11.9029 23.4639 10.8625 23.2326C9.80137 22.9967 9.43392 22.3178 9.28834 21.898C9.08927 21.3949 8.79295 20.9395 8.41837 20.5589C8.27041 20.4085 8.08746 20.2981 7.92478 20.1638C7.64109 19.9296 7.4778 19.6226 8.17353 19.612C8.51714 19.6502 8.8467 19.7728 9.13429 19.9694C9.42187 20.166 9.65901 20.4307 9.82559 20.7412C9.97256 21.0119 10.1702 21.2502 10.4071 21.4424C10.644 21.6347 10.9157 21.7771 11.2064 21.8615C11.4971 21.946 11.8012 21.9708 12.1013 21.9345C12.2912 21.9115 12.4772 21.8644 12.655 21.7944C12.8492 21.718 12.9601 21.5213 13.0066 21.3179C13.1254 20.7979 12.8521 20.0766 12.3358 19.9426C10.4204 19.4455 8.75109 18.1817 8.75109 14.737C8.74259 14.1209 8.86367 13.516 9.09992 12.961C9.44084 12.1603 9.61772 11.2602 9.63171 10.39C9.64711 9.43206 10.6081 8.77975 11.4851 9.16556C11.573 9.20424 11.6649 9.24722 11.7609 9.29497C12.5239 9.6744 13.3865 9.82782 14.2304 9.70966C15.1157 9.5857 16.013 9.58239 16.8989 9.69973C17.7893 9.81767 18.697 9.65143 19.5046 9.25827C19.6788 9.17343 19.8392 9.10478 19.9859 9.0494C20.7528 8.76004 21.4839 9.28433 21.5555 10.1008C21.6472 11.1464 21.8631 12.2403 22.2088 13.2313C22.3758 13.7099 22.4594 14.2196 22.4511 14.737C22.4511 18.3186 20.6484 19.5381 18.6438 19.9947C18.2001 20.0957 17.9751 20.686 18.1277 21.1147C18.2528 21.4664 18.3027 21.8416 18.2739 22.2148C18.2739 23.6883 18.2605 24.8726 18.2605 25.2444C18.2605 25.5336 18.4619 25.8779 18.9992 25.7677C21.4154 24.9336 23.4639 23.2462 24.7789 21.0068C26.0939 18.7674 26.5899 16.1216 26.1784 13.5419C25.7669 10.9622 24.4746 8.61641 22.5322 6.92326C20.5898 5.23011 18.1237 4.29982 15.5742 4.29846Z" fill="black"/>
</svg>
