<svg width="41" height="42" viewBox="0 0 41 42" fill="none" xmlns="http://www.w3.org/2000/svg">
<path d="M41 21.1885C41 32.5103 31.8218 41.6885 20.5 41.6885C9.17816 41.6885 0 32.5103 0 21.1885C0 9.86664 9.17816 0.688477 20.5 0.688477C31.8218 0.688477 41 9.86664 41 21.1885Z" fill="white"/>
<path d="M20.5004 3.83789C16.4439 3.83806 12.5198 5.28163 9.43031 7.9103C6.3408 10.539 4.28744 14.1812 3.63764 18.1853C2.98785 22.1894 3.78402 26.2941 5.8837 29.7648C7.98338 33.2356 11.2496 35.8461 15.0978 37.129C15.952 37.2785 16.2723 36.766 16.2723 36.3176C16.2723 35.9118 16.2509 34.5665 16.2509 33.1358C11.9587 33.9259 10.8483 32.0895 10.5066 31.1286C10.1275 30.194 9.52651 29.3658 8.75558 28.7155C8.15766 28.3952 7.3035 27.6051 8.73421 27.5838C9.28051 27.643 9.80447 27.8331 10.2617 28.1379C10.7189 28.4427 11.0959 28.8533 11.3608 29.3347C11.5944 29.7545 11.9086 30.124 12.2853 30.4221C12.662 30.7202 13.0938 30.941 13.5561 31.072C14.0183 31.2029 14.5017 31.2413 14.9788 31.1851C15.4559 31.1288 15.9172 30.979 16.3363 30.7441C16.4102 29.8756 16.7973 29.0636 17.4254 28.4593C13.6243 28.0322 9.65245 26.5587 9.65245 20.0244C9.62845 18.3266 10.255 16.6839 11.4035 15.4333C10.8812 13.9576 10.9423 12.3382 11.5743 10.9062C11.5743 10.9062 13.005 10.4577 16.2722 12.6572C19.0676 11.8884 22.0186 11.8884 24.8139 12.6572C28.0811 10.4364 29.5118 10.9062 29.5118 10.9062C30.1439 12.3382 30.205 13.9576 29.6827 15.4333C30.8347 16.6817 31.4617 18.3259 31.4337 20.0244C31.4337 26.5801 27.4404 28.0322 23.6394 28.4593C24.0471 28.8725 24.3611 29.3686 24.5601 29.914C24.7591 30.4593 24.8383 31.041 24.7926 31.6197C24.7926 33.9046 24.7712 35.741 24.7712 36.3176C24.7712 36.7661 25.0915 37.2999 25.9457 37.1291C29.7871 35.8357 33.0439 33.2191 35.1347 29.7466C37.2254 26.274 38.014 22.1714 37.3597 18.1712C36.7054 14.171 34.6508 10.5335 31.5626 7.90801C28.4745 5.28254 24.5537 3.84 20.5004 3.83789Z" fill="black"/>
</svg>
