<svg width="31" height="31" viewBox="0 0 31 31" fill="none" xmlns="http://www.w3.org/2000/svg">
<path d="M15.22 11.3125C14.4821 11.3125 13.7608 11.5313 13.1473 11.9412C12.5338 12.3512 12.0556 12.9338 11.7732 13.6155C11.4909 14.2972 11.417 15.0474 11.5609 15.771C11.7049 16.4947 12.0602 17.1595 12.582 17.6812C13.1037 18.203 13.7685 18.5583 14.4922 18.7023C15.2158 18.8462 15.966 18.7723 16.6477 18.49C17.3294 18.2076 17.912 17.7294 18.322 17.1159C18.7319 16.5024 18.9507 15.7811 18.9507 15.0432C18.9507 14.5533 18.8542 14.0682 18.6667 13.6155C18.4792 13.1629 18.2044 12.7516 17.858 12.4052C17.5116 12.0588 17.1003 11.784 16.6477 11.5965C16.195 11.409 15.7099 11.3125 15.22 11.3125ZM30.1579 7.62691C30.15 6.46521 29.9361 5.31413 29.5261 4.22715C29.2241 3.43175 28.757 2.70943 28.1554 2.10783C27.5538 1.50624 26.8315 1.03906 26.0361 0.737118C24.9491 0.327136 23.798 0.113217 22.6363 0.105302C20.6957 -1.00873e-07 20.1241 0 15.22 0C10.3159 0 9.74425 -1.00873e-07 7.80367 0.105302C6.64197 0.113217 5.49088 0.327136 4.4039 0.737118C3.60851 1.03906 2.88618 1.50624 2.28459 2.10783C1.683 2.70943 1.21582 3.43175 0.913876 4.22715C0.503893 5.31413 0.289974 6.46521 0.28206 7.62691C0.176758 9.56749 0.176758 10.1391 0.176758 15.0432C0.176758 19.9473 0.176758 20.519 0.28206 22.4595C0.298253 23.6253 0.511882 24.7799 0.913876 25.8743C1.21448 26.6661 1.68127 27.3842 2.28281 27.9804C2.88182 28.5856 3.60569 29.0528 4.4039 29.3493C5.49088 29.7593 6.64197 29.9732 7.80367 29.9811C9.74425 30.0864 10.3159 30.0864 15.22 30.0864C20.1241 30.0864 20.6957 30.0864 22.6363 29.9811C23.798 29.9732 24.9491 29.7593 26.0361 29.3493C26.8343 29.0528 27.5581 28.5856 28.1572 27.9804C28.7587 27.3842 29.2255 26.6661 29.5261 25.8743C29.9357 24.782 30.1495 23.6261 30.1579 22.4595C30.2632 20.519 30.2632 19.9473 30.2632 15.0432C30.2632 10.1391 30.2632 9.56749 30.1579 7.62691ZM26.3369 19.6615C26.2886 20.5898 26.0905 21.5042 25.7502 22.3693C25.4582 23.0909 25.024 23.7464 24.4736 24.2968C23.9231 24.8473 23.2676 25.2814 22.546 25.5735C21.6728 25.8948 20.7533 26.0726 19.8232 26.1C18.6348 26.1 18.3189 26.1 15.22 26.1C12.1211 26.1 11.8052 26.1 10.6168 26.1C9.68668 26.0726 8.76717 25.8948 7.89393 25.5735C7.14794 25.2963 6.47427 24.854 5.92327 24.2798C5.3782 23.7401 4.95726 23.0881 4.68972 22.3693C4.36713 21.4969 4.19421 20.5764 4.17826 19.6465C4.17826 18.458 4.17826 18.1421 4.17826 15.0432C4.17826 11.9443 4.17826 11.6284 4.17826 10.44C4.19421 9.51006 4.36713 8.58951 4.68972 7.71717C4.96694 6.97118 5.4092 6.29751 5.98344 5.74651C6.5255 5.20439 7.17677 4.78389 7.89393 4.51297C8.76717 4.19165 9.68668 4.01385 10.6168 3.98645C11.8052 3.98645 12.1211 3.98645 15.22 3.98645C18.3189 3.98645 18.6348 3.98645 19.8232 3.98645C20.7533 4.01385 21.6728 4.19165 22.546 4.51297C23.292 4.79019 23.9657 5.23245 24.5167 5.80668C25.0618 6.34636 25.4827 6.99831 25.7502 7.71717C26.0716 8.59041 26.2494 9.50992 26.2768 10.44C26.2768 11.6284 26.2768 11.9443 26.2768 15.0432C26.2768 18.1421 26.3821 18.458 26.3369 19.6465V19.6615ZM23.93 8.46933C23.7509 7.98341 23.4685 7.54213 23.1023 7.17594C22.7361 6.80974 22.2948 6.52735 21.8089 6.34824C21.1417 6.11697 20.439 6.00494 19.7329 6.01729C18.5596 6.01729 18.2286 6.01729 15.22 6.01729C12.2113 6.01729 11.8804 6.01729 10.707 6.01729C9.99738 6.02423 9.29456 6.15664 8.63105 6.40841C8.15257 6.57939 7.71596 6.85025 7.35024 7.203C6.98453 7.55574 6.69809 7.98229 6.50995 8.45429C6.29149 9.12427 6.18476 9.82562 6.19405 10.5303C6.19405 11.7036 6.19405 12.0346 6.19405 15.0432C6.19405 18.0519 6.19405 18.3828 6.19405 19.5562C6.20896 20.265 6.34112 20.9665 6.58517 21.6322C6.76428 22.1181 7.04667 22.5594 7.41287 22.9256C7.77907 23.2917 8.22035 23.5741 8.70627 23.7533C9.34811 23.9893 10.0235 24.1213 10.707 24.1444C11.8804 24.1444 12.2113 24.1444 15.22 24.1444C18.2286 24.1444 18.5596 24.1444 19.7329 24.1444C20.4426 24.1374 21.1454 24.005 21.8089 23.7533C22.2948 23.5741 22.7361 23.2917 23.1023 22.9256C23.4685 22.5594 23.7509 22.1181 23.93 21.6322C24.1818 20.9686 24.3142 20.2658 24.3211 19.5562C24.3211 18.3828 24.3211 18.0519 24.3211 15.0432C24.3211 12.0346 24.3211 11.7036 24.3211 10.5303C24.3216 9.81991 24.1889 9.11578 23.93 8.45429V8.46933ZM15.22 20.7897C14.466 20.7897 13.7195 20.641 13.0232 20.352C12.3268 20.063 11.6943 19.6395 11.1619 19.1057C10.6295 18.5719 10.2076 17.9383 9.92047 17.2412C9.63332 16.5441 9.48653 15.7972 9.48851 15.0432C9.48852 13.906 9.82593 12.7944 10.458 11.8491C11.0901 10.9037 11.9885 10.1672 13.0394 9.73271C14.0903 9.29822 15.2465 9.1853 16.3617 9.40825C17.4768 9.63121 18.5007 10.18 19.3037 10.9852C20.1068 11.7903 20.6529 12.8157 20.8729 13.9314C21.093 15.0471 20.977 16.203 20.5398 17.2528C20.1025 18.3025 19.3636 19.199 18.4167 19.8286C17.4697 20.4582 16.3572 20.7927 15.22 20.7897ZM21.2373 10.425C20.9047 10.3898 20.597 10.2327 20.3733 9.98414C20.1496 9.73555 20.0259 9.41298 20.0259 9.07858C20.0259 8.74419 20.1496 8.42162 20.3733 8.17303C20.597 7.92444 20.9047 7.76742 21.2373 7.73222C21.5698 7.76742 21.8776 7.92444 22.1012 8.17303C22.3249 8.42162 22.4486 8.74419 22.4486 9.07858C22.4486 9.41298 22.3249 9.73555 22.1012 9.98414C21.8776 10.2327 21.5698 10.3898 21.2373 10.425Z" fill="white"/>
</svg>
