<svg width="31" height="31" viewBox="0 0 31 31" fill="none" xmlns="http://www.w3.org/2000/svg">
<path d="M27.8617 0.000210351H2.2247C1.93652 -0.00376801 1.65037 0.048721 1.38259 0.15468C1.11482 0.260639 0.870665 0.417992 0.664077 0.617753C0.457489 0.817514 0.292513 1.05577 0.178569 1.31891C0.0646259 1.58206 0.00394755 1.86494 0 2.15139V27.9355C0.00394755 28.2219 0.0646259 28.5048 0.178569 28.768C0.292513 29.0311 0.457489 29.2693 0.664077 29.4691C0.870665 29.6689 1.11482 29.8262 1.38259 29.9322C1.65037 30.0381 1.93652 30.0906 2.2247 30.0867H27.8617C28.1499 30.0906 28.4361 30.0381 28.7039 29.9322C28.9716 29.8262 29.2158 29.6689 29.4224 29.4691C29.629 29.2693 29.7939 29.0311 29.9079 28.768C30.0218 28.5048 30.0825 28.2219 30.0864 27.9355V2.15139C30.0825 1.86494 30.0218 1.58206 29.9079 1.31891C29.7939 1.05577 29.629 0.817514 29.4224 0.617753C29.2158 0.417992 28.9716 0.260639 28.7039 0.15468C28.4361 0.048721 28.1499 -0.00376801 27.8617 0.000210351ZM9.12582 25.1826H4.58561V11.6437H9.12582V25.1826ZM6.85571 9.74822C6.22956 9.74822 5.62906 9.50097 5.1863 9.06087C4.74354 8.62077 4.49481 8.02387 4.49481 7.40148C4.49481 6.77908 4.74354 6.18218 5.1863 5.74208C5.62906 5.30198 6.22956 5.05473 6.85571 5.05473C7.1882 5.01725 7.52491 5.05 7.84378 5.15083C8.16265 5.25167 8.4565 5.41831 8.70609 5.63986C8.95567 5.8614 9.15537 6.13285 9.2921 6.43643C9.42883 6.74 9.4995 7.06886 9.4995 7.40148C9.4995 7.73409 9.42883 8.06295 9.2921 8.36652C9.15537 8.6701 8.95567 8.94155 8.70609 9.16309C8.4565 9.38464 8.16265 9.55128 7.84378 9.65212C7.52491 9.75295 7.1882 9.7857 6.85571 9.74822ZM25.5008 25.1826H20.9606V17.9167C20.9606 16.0965 20.3099 14.908 18.6603 14.908C18.1497 14.9118 17.6526 15.0709 17.2359 15.3641C16.8192 15.6573 16.5029 16.0704 16.3296 16.5478C16.2112 16.9013 16.1599 17.2737 16.1783 17.6459V25.1675H11.6381C11.6381 25.1675 11.6381 12.8622 11.6381 11.6286H16.1783V13.5391C16.5907 12.8277 17.1906 12.2417 17.9133 11.844C18.636 11.4464 19.4541 11.2523 20.2796 11.2826C23.3064 11.2826 25.5008 13.2232 25.5008 17.3902V25.1826Z" fill="white"/>
</svg>
