<svg width="33" height="23" viewBox="0 0 33 23" fill="none" xmlns="http://www.w3.org/2000/svg">
<path d="M31.2583 9.32324H1.74167C0.779771 9.32324 0 10.1068 0 11.0733V11.2575C0 12.2241 0.779771 13.0076 1.74167 13.0076H31.2583C32.2202 13.0076 33 12.2241 33 11.2575V11.0733C33 10.1068 32.2202 9.32324 31.2583 9.32324Z" fill="white"/>
<path d="M31.2583 18.5342H1.74167C0.779771 18.5342 0 19.3177 0 20.2843V20.4685C0 21.435 0.779771 22.2186 1.74167 22.2186H31.2583C32.2202 22.2186 33 21.435 33 20.4685V20.2843C33 19.3177 32.2202 18.5342 31.2583 18.5342Z" fill="white"/>
<path d="M31.2583 0.112305H1.74167C0.779771 0.112305 0 0.895841 0 1.86238V2.0466C0 3.01314 0.779771 3.79668 1.74167 3.79668H31.2583C32.2202 3.79668 33 3.01314 33 2.0466V1.86238C33 0.895841 32.2202 0.112305 31.2583 0.112305Z" fill="white"/>
</svg>
