<svg width="41" height="53" viewBox="0 0 41 53" fill="none" xmlns="http://www.w3.org/2000/svg">
<path d="M2.808 52.344C2.12533 52.344 1.57067 52.1093 1.144 51.64C0.717333 51.1707 0.504 50.3387 0.504 49.144C0.504 48.248 0.781334 46.7973 1.336 44.792C1.93333 42.744 2.72267 40.3547 3.704 37.624C4.728 34.8933 5.85867 32.0133 7.096 28.984C8.376 25.912 9.69867 22.8613 11.064 19.832C12.4293 16.8027 13.7733 14.008 15.096 11.448C16.4187 8.84533 17.6347 6.648 18.744 4.856C19.8533 3.064 20.792 1.89067 21.56 1.336C22.456 0.695999 23.288 0.375999 24.056 0.375999C24.4827 0.375999 24.9093 0.418666 25.336 0.503998C25.7627 0.58933 26.1253 0.738663 26.424 0.951996C27.192 1.42133 27.8533 2.46666 28.408 4.088C29.0053 5.66666 29.5173 7.608 29.944 9.912C30.3707 12.1733 30.712 14.6053 30.968 17.208C31.2667 19.768 31.5227 22.3067 31.736 24.824C33.016 24.6533 34.0827 24.5253 34.936 24.44C35.7893 24.3547 36.408 24.312 36.792 24.312C38.2427 24.312 39.16 24.504 39.544 24.888C39.928 25.272 40.1413 25.72 40.184 26.232C40.2693 27 40.056 27.6827 39.544 28.28C39.032 28.8773 38.3067 29.3253 37.368 29.624C37.0693 29.7093 36.4293 29.8587 35.448 30.072C34.5093 30.2427 33.3787 30.456 32.056 30.712C32.0987 31.992 32.12 33.1867 32.12 34.296C32.1627 35.3627 32.184 36.28 32.184 37.048C32.184 40.9307 31.9493 43.8533 31.48 45.816C31.0107 47.736 30.4347 49.0373 29.752 49.72C29.0693 50.4027 28.408 50.744 27.768 50.744C27 50.744 26.4667 50.5307 26.168 50.104C25.8693 49.6347 25.72 48.9733 25.72 48.12V43.576C25.72 41.9973 25.6987 40.2053 25.656 38.2C25.656 36.152 25.6347 33.9973 25.592 31.736C23.0747 32.1627 20.5147 32.568 17.912 32.952C15.352 33.336 13.1333 33.6773 11.256 33.976C10.3173 36.408 9.50667 38.6053 8.824 40.568C8.14133 42.488 7.672 43.96 7.416 44.984C6.776 47.1173 6.2 48.7173 5.688 49.784C5.176 50.808 4.68533 51.4907 4.216 51.832C3.78933 52.1733 3.32 52.344 2.808 52.344ZM13.432 28.28C15.6507 27.768 17.7627 27.2987 19.768 26.872C21.816 26.4453 23.6933 26.0827 25.4 25.784C25.272 21.944 25.0373 18.2747 24.696 14.776C24.3973 11.2347 23.9493 8.44 23.352 6.392C22.5413 7.8 21.5813 9.67733 20.472 12.024C19.3627 14.3707 18.1893 16.9733 16.952 19.832C15.7573 22.648 14.584 25.464 13.432 28.28Z" fill="black"/>
</svg>
