<svg width="70" height="70" viewBox="0 0 70 70" fill="none" xmlns="http://www.w3.org/2000/svg">
<g clip-path="url(#clip0_264_77)">
<path d="M42.9163 25.2846L35.9163 31.8034L29.418 18.69L32.7751 11.1505C33.6238 9.64546 35.0121 9.62796 35.8609 11.1505L42.9163 25.2846Z" fill="#FFA000"/>
<path d="M35.9163 31.8004L9.72754 56.1574L29.418 18.6899L35.9163 31.8004Z" fill="#F57F17"/>
<path d="M50.593 15.3154C51.8471 14.1196 53.1392 14.525 53.4659 16.2196L60.2734 55.8279L37.6926 69.3846C36.8992 69.8279 34.7992 70 34.7992 70C34.7992 70 32.8888 69.7667 32.1567 69.3642L9.73047 56.1575L50.593 15.3154Z" fill="#FFCA28"/>
<path d="M29.418 18.6899L9.73047 56.1574L18.5038 1.39114C18.8334 -0.306363 19.7959 -0.478446 20.6621 1.02364L29.418 18.6899Z" fill="#FFA000"/>
</g>
<defs>
<clipPath id="clip0_264_77">
<rect width="70" height="70" fill="white"/>
</clipPath>
</defs>
</svg>
