<svg width="70" height="70" viewBox="0 0 70 70" fill="none" xmlns="http://www.w3.org/2000/svg">
<path d="M70 35.5782C70 54.589 54.33 70.0002 35 70.0002C15.67 70.0002 0 54.589 0 35.5782C0 16.5675 15.67 1.15625 35 1.15625C54.33 1.15625 70 16.5675 70 35.5782Z" fill="white"/>
<path d="M34.9998 6.44482C28.0741 6.44511 21.3744 8.86903 16.0997 13.2829C10.8249 17.6967 7.31913 23.8125 6.20973 30.5359C5.10032 37.2592 6.45964 44.1515 10.0445 49.9793C13.6293 55.8072 19.2057 60.1904 25.7759 62.3447C27.2342 62.5957 27.7811 61.7352 27.7811 60.9821C27.7811 60.3009 27.7446 58.0419 27.7446 55.6396C20.4164 56.9662 18.5206 53.8827 17.9373 52.2692C17.29 50.6999 16.2639 49.3092 14.9477 48.2173C13.9268 47.6795 12.4685 46.3528 14.9112 46.317C15.8439 46.4166 16.7385 46.7357 17.5191 47.2475C18.2997 47.7594 18.9434 48.4487 19.3956 49.2571C19.7945 49.9619 20.3309 50.5824 20.9741 51.0829C21.6172 51.5835 22.3545 51.9543 23.1436 52.1741C23.9327 52.394 24.7582 52.4585 25.5727 52.3641C26.3873 52.2696 27.1748 52.018 27.8903 51.6236C28.0166 50.1654 28.6774 48.8019 29.7498 47.7871C23.2602 47.07 16.4789 44.5958 16.4789 33.6239C16.4379 30.7731 17.5076 28.0148 19.4685 25.9148C18.5768 23.4371 18.6812 20.7179 19.7602 18.3133C19.7602 18.3133 22.2028 17.5603 27.781 21.2535C32.5535 19.9626 37.5918 19.9626 42.3643 21.2535C47.9424 17.5245 50.3852 18.3133 50.3852 18.3133C51.4643 20.7179 51.5687 23.4371 50.6768 25.9148C52.6437 28.0112 53.7142 30.7719 53.6664 33.6239C53.6664 44.6317 46.8487 47.07 40.3591 47.7871C41.0552 48.481 41.5913 49.314 41.931 50.2297C42.2707 51.1454 42.406 52.1222 42.3279 53.0939C42.3279 56.9305 42.2914 60.0141 42.2914 60.9822C42.2914 61.7352 42.8383 62.6316 44.2966 62.3448C50.8552 60.1729 56.4156 55.7795 59.9851 49.9486C63.5547 44.1178 64.9011 37.2291 63.784 30.5122C62.6669 23.7954 59.159 17.6875 53.8865 13.2791C48.6141 8.87057 41.9202 6.44837 34.9998 6.44482Z" fill="black"/>
</svg>
