<svg width="48" height="48" viewBox="0 0 48 48" fill="none" xmlns="http://www.w3.org/2000/svg">
<g clip-path="url(#clip0_120_100)">
<path d="M7.17078 42.6684L3.42578 0.666504H44.5741L40.8252 42.6626L23.9747 47.3332L7.17078 42.6684Z" fill="#E44D26"/>
<path d="M24 43.7634L37.615 39.9873L40.8194 4.10059H24V43.7634Z" fill="#F16529"/>
<path d="M24 19.6795H17.1847L16.7122 14.4042H24V9.25146H11.083L11.2055 10.634L12.4713 24.8284H24V19.6795ZM24 33.0573L23.9766 33.0631L18.2405 31.5134L17.873 27.4048H12.7027L13.4241 35.4937L23.9766 38.424L24 38.4162V33.0573Z" fill="#EBEBEB"/>
<path d="M23.9824 19.6795V24.8304H30.3271L29.7283 31.5115L23.9824 33.0612V38.4201L34.5427 35.4937L34.6205 34.6226L35.8319 21.062L35.9563 19.6776H34.568L23.9824 19.6795ZM23.9824 9.25146V14.4042H36.4249L36.528 13.2454L36.7633 10.634L36.8858 9.25146H23.9824Z" fill="white"/>
<path d="M23.9996 47.3252L23.9746 47.3329H23.9996V47.3252Z" fill="#DEDEDE"/>
<path d="M24 14.404H16.7122L17.1827 19.6793H23.9805H24V14.404ZM24 0.666504H3.42578L7.17078 42.6684L23.9747 47.3332L24 47.3254V38.416L23.9766 38.4237L13.4241 35.4935L12.7027 27.4046H17.873L18.2405 31.5132L23.9766 33.0629L23.9825 33.061L24 33.0571V24.8301H12.4713L11.2055 10.6357L11.083 9.25123H23.9825H24V0.666504Z" fill="#C64321"/>
<path d="M17.873 27.4048H12.7027L13.4241 35.4937L23.9766 38.424L24 38.4162L23.9825 38.4201V33.0612L23.9766 33.0631L18.2405 31.5134L17.873 27.4048ZM23.9825 9.25146H11.083L11.2055 10.634L12.4713 24.8284H24H23.9825V19.6795H17.1847L16.7122 14.4042H24H23.9825V9.25146Z" fill="#CDCDCD"/>
<path d="M23.9999 33.0573L23.9824 33.0612V38.4201L23.9999 38.4162V33.0573ZM23.9999 19.6795H23.9824V24.8304H23.9999V19.6795ZM23.9999 9.25146H23.9824V14.4042H23.9999V9.25146Z" fill="#DEDEDE"/>
</g>
<defs>
<clipPath id="clip0_120_100">
<rect width="46.6667" height="46.6667" fill="white" transform="translate(0.666992 0.666504)"/>
</clipPath>
</defs>
</svg>
