<svg width="70" height="70" viewBox="0 0 70 70" fill="none" xmlns="http://www.w3.org/2000/svg">
<g clip-path="url(#clip0_264_46)">
<path d="M22.5694 54.1131C22.5694 54.1131 18.9611 55.6659 25.1374 56.1913C32.6199 56.8229 36.4439 56.7325 44.6897 55.5775C44.6897 55.5775 46.8577 56.5834 49.8851 57.4547C31.4006 63.3171 8.05046 57.115 22.5694 54.1131ZM20.3106 46.4629C20.3106 46.4629 16.2635 48.6798 22.4444 49.1528C30.4374 49.763 36.7495 49.813 47.6722 48.2566C47.6722 48.2566 49.183 49.3899 51.5585 50.0098C29.2093 54.8459 4.31643 50.3912 20.3106 46.4629Z" fill="#5382A1"/>
<path d="M39.3534 33.4856C43.9081 37.366 38.1567 40.8579 38.1567 40.8579C38.1567 40.8579 49.7216 36.44 44.4104 30.9075C39.4499 25.7486 35.6456 23.1849 56.2396 14.3467C56.2396 14.3467 23.914 20.3212 39.3534 33.4856Z" fill="#E76F00"/>
<path d="M63.8008 59.7715C63.8008 59.7715 66.4711 61.3995 60.8599 62.6591C50.1904 65.051 16.4518 65.7733 7.07932 62.7544C3.71028 61.67 10.0284 60.1648 12.0157 59.8488C14.0883 59.5162 15.273 59.5783 15.273 59.5783C11.5261 57.6249 -8.94516 63.4135 4.87467 65.071C42.563 69.5939 73.5766 63.0346 63.8008 59.7715ZM24.3051 38.5364C24.3051 38.5364 7.14385 41.5529 18.2281 42.648C22.9081 43.1117 32.2377 43.0069 40.9281 42.4679C48.0303 42.0249 55.1618 41.0821 55.1618 41.0821C55.1618 41.0821 52.6575 41.8757 50.8457 42.7912C33.4184 46.183 -0.247931 44.6051 9.44419 41.1357C17.6408 38.2038 24.3051 38.5364 24.3051 38.5364ZM55.091 51.2703C72.807 44.4581 64.6158 37.9116 58.8986 38.7937C57.4971 39.0094 56.8724 39.1963 56.8724 39.1963C56.8724 39.1963 57.3927 38.5934 58.3862 38.3325C69.6966 35.3898 78.3952 47.011 54.735 51.6136C54.735 51.6138 55.0093 51.4326 55.091 51.2703Z" fill="#5382A1"/>
<path d="M44.4103 0.0749093C44.4103 0.0749093 54.2216 7.33791 35.1047 18.5057C19.7752 27.4645 31.6091 32.5725 35.0985 38.4086C26.1502 32.4343 19.5833 27.175 23.9891 22.2803C30.4551 15.0948 48.3688 11.6114 44.4103 0.0749093Z" fill="#E76F00"/>
<path d="M26.0459 69.7298C43.0508 70.5354 69.1635 69.2829 69.7819 63.3286C69.7819 63.3286 68.5932 65.586 55.7284 67.3785C41.2144 69.3996 23.3136 69.1637 12.6963 67.8683C12.6966 67.8683 14.8695 69.1995 26.0459 69.7298Z" fill="#5382A1"/>
</g>
<defs>
<clipPath id="clip0_264_46">
<rect width="70" height="70" fill="white"/>
</clipPath>
</defs>
</svg>
