<svg width="48" height="48" viewBox="0 0 48 48" fill="none" xmlns="http://www.w3.org/2000/svg">
<g clip-path="url(#clip0_120_93)">
<path d="M0.666992 47.9998H47.3337V0.666504H0.666992V47.9998Z" fill="#F0D91F"/>
<path d="M24.0003 0.666504H0.666992V47.9998H24.0003V0.666504Z" fill="#D1BD1B"/>
<path d="M39.1359 37.4069C38.6401 35.5116 34.759 35.0698 32.1048 33.0582C29.4215 31.224 28.7818 26.7865 30.9984 24.2404C31.7568 23.2937 33.009 22.5837 34.3234 22.2583L35.6943 22.0827C38.3484 22.0216 39.9798 22.7316 41.2048 24.122C41.5587 24.475 41.8193 24.832 42.3443 25.6604C40.9423 26.5459 40.9423 26.5459 38.9318 27.8791C38.4923 26.9324 37.7923 26.3408 37.034 26.1041C35.8673 25.7491 34.3798 26.1317 34.0882 27.4058C33.9734 27.7904 34.0007 28.1454 34.1776 28.7962C34.6501 29.8908 36.2407 30.3641 37.6718 31.0445C41.7843 32.7387 43.1687 34.5511 43.5109 36.7107L43.4215 36.5786C43.7443 38.4423 43.334 39.6552 43.2776 39.8327C41.759 45.0986 33.3007 45.2761 29.9173 41.8148C29.2173 40.9865 28.7507 40.5723 28.3423 39.6276L31.9007 37.5548C32.8632 39.034 33.7362 39.8347 35.3132 40.1897C37.4443 40.454 39.6026 39.7144 39.1359 37.4069ZM16.4812 38.0913C16.5143 38.0913 16.6057 38.2707 16.7282 38.4778C17.1812 39.245 17.572 39.7775 18.342 40.1641C19.0926 40.4027 20.7454 40.5763 21.387 39.2174C21.7759 38.5331 21.6534 36.3005 21.6534 33.8707C21.6534 30.0426 21.6709 26.2441 21.6709 22.422H26.042L26.0323 22.5324C26.0323 26.6149 26.0557 30.6678 26.0323 34.7188C26.044 37.2353 26.252 39.4837 25.2604 41.3178C24.574 42.7359 23.2615 43.6529 21.739 44.1006C19.3998 44.6331 17.1657 44.3077 15.5032 43.3019C14.387 42.6215 13.5218 41.5525 12.9287 40.31L16.4812 38.0913Z" fill="black"/>
<path d="M36.0053 22.0791C35.9042 22.0791 35.7992 22.0811 35.6942 22.083L34.3233 22.2586C33.0089 22.584 31.7567 23.294 30.9983 24.2407C28.7817 26.7868 29.4214 31.2243 32.1047 33.0585C32.1281 33.0762 32.1533 33.094 32.1767 33.1137H41.3622C40.4853 32.3958 39.2894 31.7114 37.6717 31.0448C36.2386 30.3644 34.65 29.8911 34.1775 28.7965C34.0006 28.1457 33.9733 27.7907 34.0881 27.4061C34.3117 26.4318 35.2333 25.9782 36.1783 25.9782C36.4681 25.9782 36.7597 26.0216 37.0339 26.1044C37.7922 26.3411 38.4922 26.9327 38.9317 27.8794C40.9422 26.5462 40.9422 26.5462 42.3442 25.6607C41.8192 24.8323 41.5586 24.4773 41.2047 24.1223C40.0283 22.7871 38.4767 22.0791 36.0053 22.0791ZM26.0439 22.4223H21.6728C21.6728 25.992 21.6572 29.542 21.6553 33.1137H26.0419C26.0536 29.5972 26.0342 26.0768 26.0342 22.5327L26.0439 22.4223Z" fill="#212121"/>
</g>
<defs>
<clipPath id="clip0_120_93">
<rect width="46.6667" height="47.3333" fill="white" transform="translate(0.666992 0.666504)"/>
</clipPath>
</defs>
</svg>
