<svg width="70" height="70" viewBox="0 0 70 70" fill="none" xmlns="http://www.w3.org/2000/svg">
<rect width="70" height="70" rx="19" fill="white"/>
<path d="M58.5818 50.3122C55.535 50.2348 53.1735 50.5453 51.193 51.3987C50.6216 51.6314 49.7074 51.6316 49.6312 52.3689C49.936 52.6793 49.974 53.1838 50.2407 53.6104C50.6982 54.3863 51.4975 55.434 52.2212 55.9775C53.0209 56.5981 53.8211 57.2188 54.6586 57.762C56.1442 58.6934 57.8202 59.2364 59.2675 60.1677C60.1057 60.7105 60.9431 61.4095 61.7811 61.9913C62.2001 62.3013 62.4665 62.8062 63 63V62.8838C62.7331 62.5343 62.657 62.0301 62.3905 61.6421C62.0101 61.254 61.6287 60.9048 61.2478 60.5167C60.1434 59.0038 58.7723 57.6844 57.2869 56.5981C56.0682 55.7444 53.4018 54.5805 52.9069 53.1447C52.9069 53.1447 52.8686 53.1062 52.8307 53.0673C53.6685 52.9897 54.6586 52.6793 55.4588 52.4465C56.7537 52.097 57.9343 52.1748 59.2675 51.8256C59.8767 51.6704 60.4862 51.4764 61.0954 51.2823V50.9333C60.4102 50.2348 59.915 49.3037 59.1913 48.6441C57.2489 46.9364 55.1157 45.2683 52.9069 43.8715C51.726 43.0954 50.2024 42.591 48.9456 41.9315C48.4889 41.6985 47.7269 41.5823 47.4604 41.1942C46.7746 40.3408 46.3937 39.2156 45.8987 38.2067C44.7945 36.0725 43.7277 33.7058 42.7754 31.4556C42.0902 29.9422 41.6712 28.4288 40.8332 27.0323C36.9102 20.4362 32.6444 16.4398 26.0936 12.5207C24.6842 11.706 23.0084 11.3568 21.2183 10.9302C20.2665 10.8912 19.314 10.8138 18.3619 10.7747C17.7524 10.5031 17.143 9.76604 16.6097 9.4168C14.4391 8.01983 8.83991 4.99374 7.24029 8.99017C6.21182 11.512 8.76395 13.9951 9.63961 15.2759C10.2876 16.1681 11.1252 17.1768 11.5823 18.1858C11.8489 18.845 11.9249 19.5439 12.1915 20.2422C12.8012 21.9489 13.3721 23.8506 14.1723 25.4416C14.5913 26.2562 15.0482 27.1097 15.5814 27.847C15.8862 28.2736 16.4192 28.4679 16.5337 29.1661C16.0007 29.9422 15.9623 31.1064 15.6574 32.0763C14.2863 36.4607 14.8198 41.8927 16.7621 45.1131C17.3713 46.0827 18.8188 48.2174 20.7612 47.4023C22.4753 46.7041 22.0944 44.4924 22.5892 42.5524C22.7039 42.0863 22.6277 41.7763 22.856 41.4659V41.5437C23.3893 42.6298 23.9224 43.6777 24.4175 44.764C25.5984 46.665 27.6549 48.6441 29.3688 49.9634C30.2832 50.6615 31.0067 51.8644 32.1495 52.2913V52.1746H32.073C31.8445 51.8254 31.5017 51.6704 31.1972 51.3985C30.5117 50.7005 29.7497 49.8468 29.2166 49.0707C27.6172 46.8976 26.2076 44.4922 24.9508 42.0089C24.3416 40.8064 23.8081 39.4871 23.3131 38.2843C23.0843 37.8182 23.0844 37.1202 22.7037 36.8876C22.1323 37.7411 21.2945 38.4784 20.8755 39.5259C20.1522 41.1942 20.0758 43.2507 19.8091 45.3845C19.6568 45.4237 19.7327 45.3845 19.6566 45.4625C18.4381 45.1516 18.0191 43.8715 17.5618 42.785C16.419 40.0303 16.2286 35.607 17.2191 32.4255C17.4858 31.6106 18.6285 29.0499 18.1714 28.2739C17.9429 27.5366 17.1808 27.1097 16.7621 26.5279C16.2671 25.7906 15.7336 24.8597 15.391 24.0446C14.4768 21.8718 14.0197 19.4661 13.0295 17.2932C12.5724 16.2843 11.7729 15.237 11.1252 14.3057C10.4017 13.2582 9.60174 12.5207 9.03037 11.2792C8.84013 10.8526 8.57327 10.1541 8.878 9.68843C8.95418 9.37799 9.10633 9.2618 9.41128 9.18419C9.90647 8.75712 11.3159 9.30038 11.8106 9.53321C13.22 10.1148 14.4006 10.6585 15.5814 11.4732C16.1145 11.8613 16.6859 12.5986 17.3713 12.7926H18.1712C19.3901 13.064 20.761 12.8702 21.9037 13.2192C23.9226 13.8787 25.7505 14.8488 27.3885 15.8965C32.378 19.1168 36.491 23.6953 39.2717 29.1661C39.7288 30.0582 39.919 30.8735 40.338 31.8044C41.1382 33.7058 42.1283 35.6458 42.9278 37.5082C43.7277 39.3316 44.4893 41.1942 45.6321 42.7076C46.2034 43.5221 48.4885 43.9491 49.517 44.376C50.2788 44.725 51.4596 45.0357 52.145 45.4623C53.4399 46.2768 54.7348 47.2085 55.9537 48.1006C56.5632 48.5662 58.4673 49.5363 58.5818 50.3122Z" fill="#00546B"/>
<path d="M19.5373 17C18.8999 17 18.4501 17.0629 18 17.1564V17.2189H18.075C18.3753 17.7189 18.8999 18.0627 19.2748 18.5C19.575 18.9998 19.8373 19.5 20.1376 20C20.1749 19.9686 20.2124 19.9375 20.2124 19.9375C20.7377 19.6248 21 19.125 21 18.375C20.775 18.1564 20.7375 17.9377 20.5499 17.7189C20.3251 17.4063 19.8373 17.2502 19.5373 17Z" fill="#00546B"/>
</svg>
