<svg width="54" height="54" viewBox="0 0 54 54" fill="none" xmlns="http://www.w3.org/2000/svg">
<path d="M26.9998 31.8092C29.656 31.8092 31.8092 29.656 31.8092 26.9998C31.8092 24.3437 29.656 22.1904 26.9998 22.1904C24.3437 22.1904 22.1904 24.3437 22.1904 26.9998C22.1904 29.656 24.3437 31.8092 26.9998 31.8092Z" fill="#61DAFB"/>
<path d="M45.2674 19.0686C44.3393 18.7311 43.3689 18.3936 42.3564 18.0982C42.6096 17.0857 42.8205 16.0732 42.9893 15.1029C43.8752 9.53418 42.9049 5.61074 40.2049 4.09199C39.4033 3.62793 38.5174 3.41699 37.5049 3.41699C34.5518 3.41699 30.7971 5.61074 27.0002 9.28105C23.2033 5.61074 19.4486 3.41699 16.4955 3.41699C15.483 3.41699 14.5971 3.62793 13.7955 4.09199C11.0955 5.65293 10.1252 9.57637 11.0111 15.1029C11.1799 16.0732 11.3908 17.0857 11.6439 18.0982C10.6314 18.3936 9.66113 18.6889 8.73301 19.0686C3.45957 21.0936 0.59082 23.8779 0.59082 26.9998C0.59082 30.1217 3.50176 32.9061 8.73301 34.9311C9.66113 35.2686 10.6314 35.6061 11.6439 35.9014C11.3908 36.9139 11.1799 37.9264 11.0111 38.8967C10.1252 44.4654 11.0955 48.3889 13.7955 49.9076C14.5971 50.3717 15.483 50.5826 16.4955 50.5826C19.4908 50.5826 23.2455 48.3889 27.0002 44.7186C30.7971 48.3889 34.5518 50.5826 37.5049 50.5826C38.5174 50.5826 39.4033 50.3717 40.2049 49.9076C42.9049 48.3467 43.8752 44.4232 42.9893 38.8967C42.8205 37.9264 42.6096 36.9139 42.3564 35.9014C43.3689 35.6061 44.3393 35.3107 45.2674 34.9311C50.5408 32.9061 53.4096 30.1217 53.4096 26.9998C53.4096 23.8779 50.5408 21.0936 45.2674 19.0686ZM39.0236 6.20137C40.7533 7.21387 41.3439 10.3357 40.6268 14.7654C40.5002 15.6514 40.2893 16.5795 40.0361 17.5498C37.8424 17.0436 35.5221 16.7061 33.0752 16.4951C31.6408 14.4701 30.1643 12.6561 28.6877 11.0107C31.8096 7.93105 34.9736 5.82168 37.5471 5.82168C38.0955 5.82168 38.6018 5.94824 39.0236 6.20137ZM34.2986 31.2186C33.5393 32.5686 32.6533 33.9186 31.7252 35.2686C30.1643 35.3951 28.6033 35.4373 27.0002 35.4373C25.3549 35.4373 23.7939 35.3951 22.2752 35.2686C21.3471 33.9186 20.5033 32.5686 19.7439 31.2186C18.9424 29.8264 18.183 28.392 17.508 26.9998C18.183 25.6076 18.9424 24.1732 19.7439 22.7811C20.5033 21.4311 21.3893 20.0811 22.3174 18.7311C23.8783 18.6045 25.4393 18.5623 27.0424 18.5623C28.6877 18.5623 30.2486 18.6045 31.7674 18.7311C32.6955 20.0811 33.5393 21.4311 34.2986 22.7811C35.1002 24.1732 35.8596 25.6076 36.5346 26.9998C35.8174 28.392 35.1002 29.7842 34.2986 31.2186ZM37.8002 29.8264C38.433 31.3029 38.9393 32.7373 39.4033 34.1717C37.9689 34.5092 36.4502 34.7623 34.8471 34.9732C35.3533 34.1717 35.9018 33.3279 36.3658 32.442C36.8721 31.5561 37.3361 30.6701 37.8002 29.8264ZM27.0002 41.2592C25.9877 40.1623 25.0174 38.9811 24.0893 37.7576C25.0596 37.7998 26.0299 37.842 27.0002 37.842C27.9705 37.842 28.9408 37.7998 29.9111 37.7576C28.983 38.9811 28.0127 40.1623 27.0002 41.2592ZM19.1533 34.9311C17.5502 34.7201 16.0314 34.467 14.5971 34.1295C15.0611 32.7373 15.5674 31.2607 16.2002 29.7842C16.6643 30.6279 17.1283 31.5139 17.6346 32.3576C18.1408 33.2857 18.6471 34.0873 19.1533 34.9311ZM16.2002 24.1732C15.5674 22.6967 15.0611 21.2623 14.5971 19.8279C16.0314 19.4904 17.5502 19.2373 19.1533 19.0264C18.6471 19.8279 18.0986 20.6717 17.6346 21.5576C17.1283 22.4436 16.6643 23.3295 16.2002 24.1732ZM27.0002 12.7404C28.0127 13.8373 28.983 15.0186 29.9111 16.242C28.9408 16.1998 27.9705 16.1576 27.0002 16.1576C26.0299 16.1576 25.0596 16.1998 24.0893 16.242C25.0174 15.0186 25.9877 13.8373 27.0002 12.7404ZM36.3658 21.5998L34.8471 19.0686C36.4502 19.2795 37.9689 19.5326 39.4033 19.8701C38.9393 21.2623 38.433 22.7389 37.8002 24.2154C37.3361 23.3295 36.8721 22.4436 36.3658 21.5998ZM13.3736 14.7654C12.6564 10.3357 13.2471 7.21387 14.9768 6.20137C15.3986 5.94824 15.9049 5.82168 16.4533 5.82168C18.9846 5.82168 22.1486 7.88887 25.3127 11.0107C23.8361 12.6139 22.3596 14.4701 20.9252 16.4951C18.4783 16.7061 16.158 17.0857 13.9643 17.5498C13.7111 16.5795 13.5424 15.6514 13.3736 14.7654ZM2.95332 26.9998C2.95332 25.017 5.35801 22.9076 9.57676 21.3467C10.4205 21.0092 11.3486 20.7139 12.2768 20.4607C12.9518 22.5701 13.7955 24.8061 14.808 27.042C13.7955 29.2779 12.9096 31.4717 12.2768 33.5811C6.45488 31.8936 2.95332 29.3623 2.95332 26.9998ZM14.9768 47.7982C13.2471 46.7857 12.6564 43.6639 13.3736 39.2342C13.5002 38.3482 13.7111 37.4201 13.9643 36.4498C16.158 36.9561 18.4783 37.2936 20.9252 37.5045C22.3596 39.5295 23.8361 41.3436 25.3127 42.9889C22.1908 46.0686 19.0268 48.1779 16.4533 48.1779C15.9049 48.1779 15.3986 48.0514 14.9768 47.7982ZM40.6268 39.2342C41.3439 43.6639 40.7533 46.7857 39.0236 47.7982C38.6018 48.0514 38.0955 48.1779 37.5471 48.1779C35.0158 48.1779 31.8518 46.1107 28.6877 42.9889C30.1643 41.3857 31.6408 39.5295 33.0752 37.5045C35.5221 37.2936 37.8424 36.9139 40.0361 36.4498C40.2893 37.4201 40.458 38.3482 40.6268 39.2342ZM44.4236 32.6529C43.5799 32.9904 42.6518 33.2857 41.7236 33.5389C41.0486 31.4295 40.2049 29.1936 39.1924 26.9576C40.2049 24.7217 41.0908 22.5279 41.7236 20.4186C47.5455 22.1061 51.0471 24.6373 51.0471 26.9998C51.0471 28.9826 48.6002 31.092 44.4236 32.6529Z" fill="#61DAFB"/>
</svg>
