<svg width="70" height="70" viewBox="0 0 70 70" fill="none" xmlns="http://www.w3.org/2000/svg">
<g clip-path="url(#clip0_264_52)">
<path d="M48.5026 48.693C51.0858 48.4124 53.0455 46.0762 52.9564 43.2724C52.8675 40.4689 50.6403 38.2259 47.968 38.2259H47.79C45.0283 38.3195 42.8906 40.7492 42.9797 43.6462C43.0689 45.0481 43.6032 46.263 44.4049 47.1041C41.3763 53.3657 36.7443 57.9449 29.7962 61.7765C25.075 64.3933 20.1759 65.3279 15.2767 64.6738C11.2681 64.113 8.15035 62.2441 6.19035 59.1598C3.34004 54.5806 3.07289 49.6273 5.47804 44.6743C7.17062 41.123 9.84265 38.5062 11.5352 37.1978C11.1789 35.983 10.6444 33.927 10.3772 32.4319C-2.53914 42.2446 -1.20285 55.5152 2.7166 61.7765C5.65605 66.4495 11.6244 69.3465 18.2161 69.3465C19.9976 69.3465 21.779 69.1595 23.5607 68.6925C34.9628 66.356 43.6034 59.2533 48.5026 48.693ZM64.1804 37.1046C57.4104 28.787 47.4337 24.2078 36.0317 24.2078H34.6065C33.8048 22.5257 32.1122 21.404 30.2416 21.404H30.0634C27.3022 21.4975 25.1644 23.9273 25.2533 26.8246C25.3425 29.6281 27.5693 31.8711 30.2416 31.8711H30.4196C32.3794 31.7776 34.0719 30.4692 34.7845 28.6935H36.388C43.158 28.6935 49.5715 30.7494 55.3618 34.7681C59.8155 37.8522 63.0224 41.8708 64.8039 46.7303C66.3182 50.6554 66.229 54.487 64.6256 57.7581C62.1316 62.7111 57.945 65.4214 52.4221 65.4214C48.8589 65.4214 45.474 64.2998 43.6923 63.4587C42.7126 64.3933 40.9309 65.8884 39.6837 66.8233C43.5143 68.6922 47.4337 69.7203 51.1749 69.7203C59.7264 69.7203 66.051 64.7671 68.4562 59.8141C71.0393 54.3935 70.861 45.0481 64.1804 37.1046ZM18.9287 50.2814C19.0178 53.0851 21.2447 55.3278 23.917 55.3278H24.0953C26.8568 55.2346 28.9945 52.8046 28.9053 49.9076C28.8165 47.1038 26.5893 44.8611 23.917 44.8611H23.739C23.5607 44.8611 23.2933 44.8611 23.1156 44.9543C19.4633 38.5994 17.949 31.684 18.4836 24.2075C18.8396 18.6002 20.6213 13.7405 23.739 9.72184C26.3222 6.26399 31.3105 4.58183 34.6957 4.4886C44.1377 4.30157 48.146 16.6375 48.4135 21.5908C49.5715 21.871 51.5312 22.5254 52.8675 22.9927C51.7984 7.85321 42.8906 0.00292969 34.3394 0.00292969C26.3222 0.00292969 18.9287 6.07753 15.989 15.0492C11.8915 27.0113 14.5638 38.5062 19.5521 47.5714C19.107 48.2254 18.8396 49.2532 18.9287 50.2814Z" fill="#764ABC"/>
</g>
<defs>
<clipPath id="clip0_264_52">
<rect width="70" height="70" fill="white"/>
</clipPath>
</defs>
</svg>
