<svg width="70" height="70" viewBox="0 0 70 70" fill="none" xmlns="http://www.w3.org/2000/svg">
<path d="M4.66119 42.7972C3.27611 38.6962 2.87656 34.3673 3.67565 29.9118C4.02192 28.0638 4.55465 26.2918 5.14064 24.4944C5.14064 24.4944 8.81644 13.0267 21.2556 7.78646C21.2556 7.78646 25.544 5.63468 31.99 5.48278C31.99 5.48278 31.111 4.6727 30.5516 4.31829C27.5151 2.39435 22.9869 1.76147 20.2434 4.47018C19.4177 5.28026 18.7251 6.16629 17.9527 6.97637C17.0737 7.88772 16.0082 8.64717 14.783 9.07752C13.7175 9.45725 12.6521 9.38131 11.56 9.55851C10.4413 9.73572 9.29589 10.1154 8.39026 10.7989C7.40472 11.5584 7.00518 12.571 6.89863 13.7355C6.79209 14.6468 6.81873 15.5835 6.76545 16.4948C6.63227 19.1782 5.72664 19.9377 3.70229 21.4313C2.84993 22.0388 2.13075 22.8489 1.59803 23.7096C-0.000148391 26.393 2.55693 29.1777 2.69011 31.8864C2.71675 32.4433 2.66347 33.0003 2.45038 33.5319C2.23729 34.1141 1.81111 34.4938 1.46484 34.9748C0.985392 35.6077 0.665757 36.3672 0.798938 37.1519C0.932119 37.9367 1.3583 38.6708 1.75784 39.3543C2.53029 40.5695 3.4892 41.658 4.50137 42.6959C4.55465 42.6959 4.60792 42.7466 4.66119 42.7972Z" fill="#E32286"/>
<path d="M55.4835 52.5179C61.6098 49.9864 64.2202 45.6069 64.2202 45.6069C69.947 38.1896 68.0025 30.3672 68.0025 30.3672C64.3534 37.9111 61.0238 39.9869 61.0238 39.9869C70.0002 27.0003 61.0771 19.1526 61.0771 19.1526C64.7263 26.5446 59.8785 35.5568 59.8785 35.5568C55.8031 43.7082 50.0231 46.6195 50.0231 46.6195C56.469 47.7587 61.2103 43.6323 61.2103 43.6323C51.9675 53.1255 41.9523 52.6698 41.9523 52.6698C46.1608 57.1505 52.4736 56.7708 52.4736 56.7708C44.2164 58.6188 36.4652 56.0114 30.0992 50.9737C28.9005 50.037 27.7552 49.0244 26.6897 47.9359C26.6897 47.9359 25.7308 46.9739 25.5444 46.7207L25.5177 46.6954C25.3846 51.3787 30.5254 55.7329 30.5254 55.7329C24.0794 53.2014 21.1228 47.708 21.1228 47.708C21.1228 47.708 16.7811 40.6704 19.9241 32.6456C23.0672 24.6207 32.5763 22.8993 32.5763 22.8993C40.434 26.5193 47.0931 27.6585 47.0931 27.6585C61.1304 29.8862 60.3313 23.3549 60.3313 23.3549C60.4645 17.735 51.5413 11.7606 51.5413 11.7606C35.6395 0.546057 21.2559 7.78617 21.2559 7.78617C8.81683 13.0264 5.14103 24.4941 5.14103 24.4941C4.55504 26.2915 4.02231 28.0635 3.67604 29.9115C2.31759 37.4301 4.36858 44.5436 8.81683 50.8724C15.7423 60.6947 26.9827 64.0869 26.9827 64.0869C43.6304 69.4537 55.004 61.5554 55.004 61.5554C65.4721 54.7203 67.5763 46.822 67.5763 46.822C59.1327 53.1001 55.4835 52.5179 55.4835 52.5179ZM42.485 15.5832C43.2841 15.5832 43.9234 16.1908 43.9234 16.9502C43.9234 17.7097 43.2841 18.3172 42.485 18.3172C41.6859 18.3172 41.0467 17.7097 41.0467 16.9502C41.0467 16.1908 41.6859 15.5832 42.485 15.5832Z" fill="url(#paint0_linear_264_59)"/>
<path d="M60.3042 23.3298C60.4374 17.7098 51.5143 11.7355 51.5143 11.7355C35.6124 0.5462 21.2289 7.78631 21.2289 7.78631C8.78976 13.0265 5.11396 24.4943 5.11396 24.4943C4.39478 26.4435 3.75551 29.4307 3.75551 29.4307C2.98306 33.1773 3.32933 36.6455 3.32933 36.6455C3.64897 39.9618 4.42142 42.1895 4.42142 42.1895C5.22051 44.5691 5.59341 45.3032 5.59341 45.3032C5.56678 45.2273 5.4336 44.6704 5.4336 44.6704C5.4336 44.6704 4.31487 39.5567 5.35369 34.6456C5.35369 34.6456 6.25932 29.532 9.93512 25.5828C9.93512 25.5828 15.9016 17.5073 27.0089 20.6717C27.0089 20.6717 29.4062 21.4818 30.2319 21.8868C31.0576 22.2665 32.496 22.8488 32.496 22.8488C40.3537 26.4688 47.0127 27.608 47.0127 27.608C61.1033 29.861 60.3042 23.3298 60.3042 23.3298ZM42.4846 18.3427C41.6855 18.3427 41.0462 17.7351 41.0462 16.9757C41.0462 16.2162 41.6855 15.6087 42.4846 15.6087C43.2837 15.6087 43.9229 16.2162 43.9229 16.9757C43.9229 17.7351 43.2837 18.3427 42.4846 18.3427Z" fill="url(#paint1_radial_264_59)"/>
<path d="M33.3756 13.1532L24.2926 10.4698C24.2393 10.4698 23.973 10.3433 23.4935 10.4698C23.4935 10.4698 18.1396 11.7609 19.0719 14.5456C19.0719 14.5456 19.6313 16.2923 21.1495 17.9884L31.1381 17.5327L33.3756 13.1532Z" fill="url(#paint2_linear_264_59)"/>
<defs>
<linearGradient id="paint0_linear_264_59" x1="11.0266" y1="61.1253" x2="42.3884" y2="26.0206" gradientUnits="userSpaceOnUse">
<stop stop-color="#E01D84"/>
<stop offset="0.401" stop-color="#DF1D85"/>
<stop offset="0.77" stop-color="#932C87"/>
<stop offset="1" stop-color="#5D2F88"/>
</linearGradient>
<radialGradient id="paint1_radial_264_59" cx="0" cy="0" r="1" gradientUnits="userSpaceOnUse" gradientTransform="translate(47.507 18.7233) rotate(0.130145) scale(32.3849 25.7371)">
<stop stop-color="#E01D84"/>
<stop offset="0.139" stop-color="#DE1E85"/>
<stop offset="0.285" stop-color="#D62085"/>
<stop offset="0.434" stop-color="#C92386"/>
<stop offset="0.586" stop-color="#B72786"/>
<stop offset="0.739" stop-color="#9D2B87"/>
<stop offset="0.891" stop-color="#7C2E88"/>
<stop offset="1" stop-color="#5D2F88"/>
</radialGradient>
<linearGradient id="paint2_linear_264_59" x1="18.9419" y1="14.2003" x2="33.3678" y2="14.2003" gradientUnits="userSpaceOnUse">
<stop stop-color="#E01D84"/>
<stop offset="0.238" stop-color="#DA1E85"/>
<stop offset="0.658" stop-color="#C72085"/>
<stop offset="0.999" stop-color="#B52284"/>
</linearGradient>
</defs>
</svg>
