<svg width="70" height="70" viewBox="0 0 70 70" fill="none" xmlns="http://www.w3.org/2000/svg">
<g clip-path="url(#clip0_264_89)">
<path d="M40.9132 68.3173C39.0768 70.548 35.3534 69.3258 35.3091 66.4775L34.6621 24.8174H63.7023C68.9622 24.8174 71.8958 30.6776 68.6251 34.6513L40.9132 68.3173Z" fill="url(#paint0_linear_264_89)"/>
<path d="M40.9132 68.3173C39.0768 70.548 35.3534 69.3258 35.3091 66.4775L34.6621 24.8174H63.7023C68.9622 24.8174 71.8958 30.6776 68.6251 34.6513L40.9132 68.3173Z" fill="url(#paint1_linear_264_89)" fill-opacity="0.2"/>
<path d="M29.1025 1.28298C30.9388 -0.947978 34.6623 0.274425 34.7066 3.12278L34.9901 44.7828H6.31336C1.05324 44.7828 -1.88042 38.9226 1.39048 34.9489L29.1025 1.28298Z" fill="#3ECF8E"/>
</g>
<defs>
<linearGradient id="paint0_linear_264_89" x1="34.6621" y1="34.0545" x2="60.1866" y2="45.1523" gradientUnits="userSpaceOnUse">
<stop stop-color="#249361"/>
<stop offset="1" stop-color="#3ECF8E"/>
</linearGradient>
<linearGradient id="paint1_linear_264_89" x1="23.2194" y1="18.9419" x2="34.3417" y2="40.6474" gradientUnits="userSpaceOnUse">
<stop/>
<stop offset="1" stop-opacity="0"/>
</linearGradient>
<clipPath id="clip0_264_89">
<rect width="70" height="70" fill="white"/>
</clipPath>
</defs>
</svg>
